<?xml version="1.0" encoding="UTF-8" standalone="no"?>
<svg
   xmlns:dc="http://purl.org/dc/elements/1.1/"
   xmlns:cc="http://creativecommons.org/ns#"
   xmlns:rdf="http://www.w3.org/1999/02/22-rdf-syntax-ns#"
   xmlns:svg="http://www.w3.org/2000/svg"
   xmlns="http://www.w3.org/2000/svg"
   viewBox="0 0 300 300"
   height="300"
   width="300"
   version="1.1"
   id="svg5593">
  <metadata
     id="metadata5599">
    <rdf:RDF>
      <cc:Work
         rdf:about="">
        <dc:format>image/svg+xml</dc:format>
        <dc:type
           rdf:resource="http://purl.org/dc/dcmitype/StillImage" />
        <dc:title></dc:title>
      </cc:Work>
    </rdf:RDF>
  </metadata>
  <defs
     id="defs5597" />
  <g
     transform="scale(0.8,0.8)"
     id="g6161">
    <rect
       style="opacity:0;fill:#00ffff;fill-opacity:1;stroke:none;stroke-width:12;stroke-linecap:round;stroke-linejoin:round;stroke-miterlimit:4;stroke-dasharray:72, 72;stroke-dashoffset:0;stroke-opacity:1"
       id="rect6159"
       width="375"
       height="375"
       x="0"
       y="0" />
    <g
       id="g6143">
      <path
         style="fill:#afcadd"
         d="m 115.98525,268.57277 c -6.48641,-1.81536 -15.37614,-10.01926 -17.835794,-16.45977 -1.29507,-3.39109 -1.900078,-8.0605 -1.657122,-12.78955 L 96.875,231.875 l 10.43365,-0.36501 c 12.11878,-0.42397 13.94135,0.53 13.94135,7.29716 0,6.86934 4.60209,11.91187 11.86549,13.00109 8.40568,1.26051 16.30237,-0.31702 19.97595,-3.99059 l 3.15856,-3.15856 0,-30.69975 0,-30.69975 -4.12201,3.9952 c -2.2671,2.19736 -4.79673,3.99521 -5.6214,3.99521 C 143.64814,191.25 135,182.29271 135,179.33208 c 0,-2.06202 4.51205,-7.15529 15.9278,-17.97955 8.76029,-8.30639 16.52245,-15.10253 17.24925,-15.10253 1.60582,0 33.07295,31.61939 33.07295,33.23297 0,1.68083 -9.48196,11.76703 -11.0621,11.76703 -0.743,0 -3.27286,-1.6875 -5.62193,-3.75 -2.34905,-2.0625 -4.58457,-3.75 -4.96782,-3.75 -0.38324,0 -0.87149,14.76562 -1.08497,32.8125 -0.36439,30.80162 -0.55308,33.11892 -3.07903,37.8125 -3.13466,5.82465 -6.82966,9.42924 -12.93415,12.61766 -3.57751,1.86857 -7.79281,2.3392 -23.125,2.58188 -10.3125,0.16322 -20.83789,-0.28757 -23.38975,-1.00177 z M 1.9846449,265.85975 c -2.09282599,-1.53031 -2.11412118,-2.02039 -0.3177113,-7.31159 3.413604,-10.05454 33.3785914,-76.55286 34.9439564,-77.54766 0.83276,-0.52921 6.985517,-0.97084 13.672794,-0.98136 11.245875,-0.0178 12.295643,0.19201 13.983005,2.79336 C 67.009173,187.0405 100,261.28325 100,263.22695 c 0,2.80119 -4.406977,4.27405 -12.730324,4.25462 C 76.625995,267.45672 73.851898,265.8039 70.516601,257.5 l -2.76137,-6.875 -17.664396,-0.34705 -17.664396,-0.34704 -3.579884,7.97889 c -2.56718,5.72176 -4.413225,8.20196 -6.52572,8.76747 -5.230134,1.40009 -18.0057976,0.88651 -20.3361901,-0.81752 z M 58.060678,230.10407 C 58.871254,228.79254 51.305652,208.75 50,208.75 c -1.305653,0 -8.871254,20.04254 -8.060678,21.35407 0.389522,0.63027 4.016827,1.14593 8.060678,1.14593 4.043851,0 7.671156,-0.51566 8.060678,-1.14593 z M 179.0625,266.21105 c -1.54688,-0.62178 -2.8125,-1.60485 -2.8125,-2.18462 0,-2.36904 36.2197,-81.98719 37.7344,-82.94776 0.90233,-0.57221 7.11201,-1.04901 13.79929,-1.05953 11.2619,-0.0178 12.2892,0.1883 13.92832,2.79336 0.9733,1.54687 9.23765,19.6875 18.36523,40.3125 9.12756,20.625 16.99863,37.97007 17.49127,38.54461 1.08549,1.26594 33.11908,-37.42644 32.9067,-39.74699 -0.0824,-0.90017 -6.4105,-9.52318 -14.0625,-19.16226 C 288.70524,193.05139 282.5,184.06737 282.5,182.61737 282.5,180.12054 283.12912,180 296.16071,180 c 9.75583,0 14.13984,0.47912 15.33685,1.67613 0.92186,0.92187 4.68921,6.26562 8.37188,11.875 3.68266,5.60938 7.04671,10.18447 7.47566,10.16688 0.42894,-0.0176 4.46523,-5.22072 8.96951,-11.5625 l 8.18962,-11.53051 13.99788,-0.35344 c 13.48294,-0.34044 13.99789,-0.25722 13.99789,2.2619 0,1.47279 -6.27418,10.36449 -14.36181,20.35344 -7.899,9.75595 -14.36539,18.3006 -14.36975,18.9881 -0.004,0.6875 5.6559,8.28125 12.57837,16.875 6.92247,8.59375 13.98512,17.77669 15.69478,20.40651 4.65471,7.15998 2.95582,8.34349 -11.97675,8.34349 -14.01439,0 -12.74754,0.8284 -24.37255,-15.9375 -3.93271,-5.67188 -7.55948,-10.3125 -8.05946,-10.3125 -0.49998,0 -4.75812,5.63592 -9.46253,12.52427 -5.28505,7.73853 -9.60514,12.78822 -11.30567,13.21503 -2.24819,0.56426 -11.20938,0.35355 -29.36463,-0.69045 -1.03125,-0.0593 -5.37136,0.25291 -9.6447,0.69381 -4.27334,0.44089 -9.70071,0.43936 -12.06082,-0.004 -3.86084,-0.72428 -4.63599,-1.61645 -7.73033,-8.89713 L 244.62495,250 l -17.39086,0 -17.39088,0 -3.61072,7.96329 c -2.53664,5.59441 -4.46549,8.19223 -6.48411,8.73293 -4.22354,1.13129 -17.43527,0.82142 -20.68588,-0.48517 z m 56.446,-36.02256 c 0.74897,-1.21185 -6.96446,-21.41905 -8.1805,-21.43079 -0.94025,-0.009 -8.59451,18.65224 -8.58473,20.9298 0.007,1.80455 15.67033,2.27259 16.76523,0.50099 z M 91.681803,213.50929 c -8.478873,-8.3824 -15.757519,-16.31633 -16.174769,-17.63096 -0.538985,-1.69821 0.617947,-3.80001 3.99585,-7.25929 2.614967,-2.67798 5.521608,-4.86904 6.459204,-4.86904 0.937593,0 3.548406,1.40625 5.801803,3.125 2.253398,1.71875 4.465867,3.125 4.916598,3.125 0.450731,0 0.822649,-13.64063 0.826482,-30.3125 0.0041,-17.67863 0.564599,-32.32074 1.344892,-35.13087 0.735854,-2.65011 3.623297,-7.29772 6.416537,-10.32802 7.31928,-7.94049 13.69911,-9.52161 36.3477,-9.00814 16.24689,0.36834 18.39754,0.69022 24.03987,3.59798 8.60439,4.43423 13.43747,12.37044 14.12685,23.19715 0.69185,10.86521 -0.21077,11.7344 -12.18587,11.7344 C 156.56132,143.75 155,142.77925 155,135.91782 c 0,-2.65769 -0.60778,-5.96782 -1.35061,-7.35582 -4.27218,-7.98263 -28.0266,-7.98263 -32.29878,0 -1.60297,2.9952 -1.90595,61.438 -0.3185,61.438 0.56766,0 2.35321,-1.40625 3.96789,-3.125 1.61469,-1.71875 3.84857,-3.125 4.96421,-3.125 2.53216,0 11.28579,8.81464 11.28579,11.36446 0,1.91603 -31.23423,33.63554 -33.12095,33.63554 -0.56711,0 -7.96837,-6.85833 -16.447247,-15.24071 z"
         id="path6157" />
      <path
         style="fill:#93b7cf"
         d="m 117.9253,267.60936 c -6.47252,-1.6346 -12.03272,-5.52295 -16.033,-11.21217 -3.340766,-4.75128 -3.7673,-6.37203 -3.7673,-14.31504 l 0,-8.95715 10.625,0 10.625,0 0.83628,6.85246 c 1.01566,8.32226 4.56666,11.96116 12.89029,13.20936 8.85405,1.32775 16.76322,-0.35931 20.85165,-4.44773 l 3.54678,-3.54678 0,-31.34616 c 0,-25.95991 -0.2992,-31.34615 -1.74126,-31.34615 -0.9577,0 -2.05247,0.81097 -2.43283,1.80216 -0.38035,0.9912 -2.10186,2.72624 -3.82556,3.85565 -3.02638,1.98296 -3.30773,1.91389 -8.19219,-2.01137 -2.78199,-2.23567 -5.05816,-5.08738 -5.05816,-6.33714 0,-2.00953 28.36715,-30.9979 31.4341,-32.12249 1.31878,-0.48356 29.26627,26.55071 31.28674,30.26442 1.03308,1.89884 0.3935,3.21935 -3.4813,7.1875 -2.6108,2.6737 -5.17568,4.86127 -5.69973,4.86127 -0.52405,0 -2.97002,-1.77112 -5.43548,-3.93583 -2.64043,-2.31833 -4.93975,-3.47418 -5.5949,-2.8125 -0.61173,0.61783 -1.28598,15.79424 -1.49833,33.72535 l -0.3861,32.60204 -3.76115,6.07953 c -2.66767,4.31201 -5.56381,7.00795 -9.96159,9.27296 -5.69167,2.93142 -7.63946,3.21321 -23.73883,3.43436 -9.64614,0.1325 -19.31579,-0.20795 -21.48813,-0.75655 z m 162.90804,-2.1927 C 280.375,264.95834 280,264.18719 280,263.703 c 0,-0.48419 7.3125,-9.80891 16.25,-20.7216 8.9375,-10.91269 16.25,-20.20195 16.25,-20.6428 0,-0.44085 -6.46875,-9.07487 -14.375,-19.18672 -7.90625,-10.11186 -14.375,-19.19547 -14.375,-20.18582 0,-1.47785 2.40884,-1.73704 13.4375,-1.44585 l 13.4375,0.35479 7.5069,11.14814 c 4.12879,6.13146 8.15809,11.36518 8.954,11.6305 0.7959,0.2653 5.19413,-4.89199 9.77384,-11.46064 l 8.32672,-11.943 13.03178,0 c 10.92408,0 13.03176,0.31262 13.03176,1.93295 0,1.06311 -6.46875,9.85202 -14.375,19.53091 -7.90625,9.67889 -14.375,18.30588 -14.375,19.17109 0,0.86521 7.29336,10.72347 16.20749,21.90724 8.91411,11.18377 15.91216,20.81196 15.55122,21.39597 -0.83494,1.35095 -24.34868,1.36311 -26.47491,0.0138 -0.87516,-0.55542 -5.37516,-6.2742 -10,-12.70837 -4.62484,-6.43418 -9.0538,-11.90488 -9.84214,-12.1571 -0.78834,-0.25223 -4.67709,4.20952 -8.64167,9.91501 -11.79039,16.96764 -10.28002,15.99855 -24.93455,15.99855 -6.98433,0 -13.07378,-0.375 -13.5321,-0.83334 z M 0.87888593,264.0625 C 0.3784048,263.15785 31.499037,191.72251 35.477617,184.64341 l 1.956717,-3.4816 12.845307,0.3566 12.845307,0.35659 17.812526,39.93159 C 90.734364,243.76895 98.75,262.49245 98.75,263.41435 c 0,1.31021 -2.625466,1.59806 -12.024807,1.31841 L 74.700386,264.375 72.252301,258.13513 c -1.346446,-3.43193 -3.035407,-6.94756 -3.753248,-7.8125 C 67.562056,249.19361 62.163933,248.75 49.362592,248.75 l -17.831296,0 -3.453171,8.125 -3.453171,8.125 -11.613707,0 C 6.62371,265 1.164147,264.57812 0.87888592,264.0625 Z M 59.480816,230.79999 C 60.227857,228.85324 51.498847,206.25 50,206.25 c -1.498847,0 -10.227858,22.60324 -9.480816,24.54999 0.46482,1.2113 3.1903,1.70001 9.480816,1.70001 6.290516,0 9.015996,-0.48871 9.480816,-1.70001 z m 118.835694,33.25989 c -0.66384,-1.07412 33.20699,-78.2521 35.61624,-81.15508 1.49652,-1.80321 22.98631,-2.38866 25.62654,-0.69816 2.43428,1.55865 36.93134,80.55274 35.71075,81.77332 -0.61774,0.61774 -6.1012,0.95933 -12.18549,0.7591 l -11.06231,-0.36406 -2.57363,-6.25477 c -4.08746,-9.93398 -2.72223,-9.37023 -22.6918,-9.37023 l -18.09565,0 -2.45408,5.9375 c -4.16274,10.07147 -3.49903,9.6528 -15.92503,10.04556 -6.23051,0.19693 -11.615,-0.106 -11.96554,-0.67318 z m 58.58304,-32.84962 c 1.05006,-1.69902 -8.24856,-25.13558 -9.77132,-24.628 -1.83752,0.6125 -9.97901,21.95064 -9.17481,24.04635 0.54269,1.41425 2.8471,1.87139 9.43358,1.87139 4.7935,0 9.07415,-0.58038 9.51255,-1.28974 z M 91.543743,210.91945 C 83.132184,202.48765 76.25,195.19472 76.25,194.71295 c 0,-1.93807 7.896034,-9.70956 9.81699,-9.66215 1.131905,0.028 4.005512,1.71544 6.385792,3.75 2.38028,2.03456 4.737354,3.6992 5.237943,3.6992 0.500589,0 1.084336,-15.09273 1.297218,-33.53939 l 0.387057,-33.5394 3.76115,-6.07965 c 2.66993,-4.31576 5.56157,-7.00618 9.96664,-9.27311 5.87045,-3.02104 7.25331,-3.19345 25.61385,-3.19345 18.20447,0 19.79554,0.19384 25.65005,3.125 8.92708,4.46949 13.21015,11.12088 14.07158,21.85249 0.8135,10.13458 0.32984,10.60188 -11.00077,10.62837 -9.49821,0.0222 -11.1875,-1.14216 -11.1875,-7.71114 0,-3.46032 -0.97925,-5.82625 -3.64746,-8.81249 -3.60804,-4.03811 -3.76929,-4.08223 -14.91793,-4.08223 -10.76594,0 -11.442,0.16435 -15.10253,3.67136 l -3.83208,3.67136 0,31.64114 c 0,17.40263 0.45726,31.64114 1.01614,31.64114 0.55887,0 2.63286,-1.6875 4.60886,-3.75 1.976,-2.0625 4.50215,-3.75 5.61365,-3.75 2.49396,0 10.01135,7.56822 10.01135,10.07905 0,2.41589 -28.86261,31.17095 -31.28753,31.17095 -1.03124,0 -8.757169,-6.89875 -17.168727,-15.33055 z"
         id="path6155" />
      <path
         style="fill:#6da8d2"
         d="M 115.73178,266.00252 C 105.53308,263.19257 97.5,251.26916 97.5,238.94129 c 0,-6.08035 1.524137,-6.79794 13.16653,-6.19894 l 7.43736,0.38265 0.81679,5.74427 c 1.03286,7.26382 3.14297,10.63882 8.13165,13.00609 5.53089,2.62459 19.67151,2.47446 24.29711,-0.25794 6.81084,-4.02326 7.40056,-7.17446 7.40056,-39.54506 0,-19.82836 -0.44289,-29.69854 -1.35801,-30.26411 -0.7469,-0.46161 -3.1643,0.91144 -5.372,3.05122 -2.2077,2.13979 -4.67078,3.89053 -5.4735,3.89053 -2.11349,0 -10.29649,-7.46496 -10.29649,-9.39299 0,-1.93345 29.77737,-30.60701 31.78525,-30.60701 1.70949,0 30.71694,28.94587 30.70896,30.64377 -0.008,1.71179 -7.3247,9.35623 -8.95505,9.35623 -0.73377,0 -3.25609,-1.6875 -5.60513,-3.75 -2.34907,-2.0625 -4.81394,-3.75 -5.47753,-3.75 -0.74061,0 -1.2183,11.46377 -1.23706,29.6875 -0.0168,16.32812 -0.60693,32.21875 -1.31139,35.3125 -1.79808,7.89658 -6.50533,14.47046 -12.72195,17.76681 -4.74616,2.51665 -7.30553,2.84374 -24.0611,3.07505 -10.44185,0.14415 -20.91819,-0.33853 -23.64322,-1.08934 z M 0.82894892,264.16229 C 0.36820418,263.70154 0.75442455,262.15466 1.6872165,260.72479 2.6200084,259.2949 10.86558,241.09122 20.01071,220.27217 l 16.627507,-37.85281 13.243392,0.35281 13.243391,0.35283 16.656325,37.5 c 9.160979,20.625 16.754729,38.90625 16.875,40.625 0.21358,3.05219 -0.0048,3.13346 -9.372051,3.48834 C 76.383342,265.15131 76.33263,265.12014 71.445212,255 L 68.125,248.125 51.875,247.76439 c -8.9375,-0.19834 -17.444361,-0.0649 -18.904135,0.29656 -1.867629,0.46244 -3.477323,2.85836 -5.432049,8.08526 -1.527852,4.08544 -3.613872,7.74885 -4.635599,8.14093 -2.60116,0.99816 -21.055635,0.89377 -22.07426807,-0.12488 z M 60.573612,231.33315 C 61.640885,229.60626 51.77753,205.625 50,205.625 c -1.77753,0 -11.640885,23.98126 -10.573613,25.70815 C 39.823022,231.97491 44.581149,232.5 50,232.5 c 5.418851,0 10.176977,-0.52509 10.573612,-1.16685 z M 179.40967,263.8061 c -0.43905,-0.7104 7.17195,-19.31327 16.91335,-41.33971 l 17.71163,-40.04808 13.21976,0.35334 13.21976,0.35335 17.32704,39.24391 c 9.52986,21.58415 17.0258,40.02893 16.65761,40.98838 -0.51437,1.34043 -3.06096,1.6603 -10.99566,1.38109 l -10.32625,-0.36338 -2.20567,-5 c -5.44609,-12.34556 -3.11175,-11.20696 -23.77367,-11.59582 l -18.37517,-0.34583 -4.0787,8.47083 -4.0787,8.47082 -10.20853,0.36137 c -6.07476,0.21504 -10.53177,-0.16165 -11.0068,-0.93027 z m 58.61348,-32.3913 c 1.03297,-1.6714 -9.42695,-26.57186 -10.94894,-26.06454 -1.81527,0.60509 -11.03156,23.55643 -10.26325,25.5586 0.70695,1.84229 20.1004,2.30485 21.21219,0.50594 z M 281.25,263.66122 c 0,-0.73632 6.89062,-9.76592 15.3125,-20.06578 8.42187,-10.29985 15.48405,-19.75988 15.69372,-21.02227 0.23243,-1.39933 -4.44971,-8.35108 -11.99525,-17.8098 -14.44817,-18.1115 -16.81861,-21.53906 -15.68202,-22.67566 1.13743,-1.13742 23.20275,-1.03204 24.90141,0.11888 0.74545,0.5051 4.86118,6.15582 9.14605,12.55717 4.28489,6.40135 8.30122,11.46385 8.92519,11.25 0.62396,-0.21385 4.9567,-5.73256 9.6283,-12.26381 l 8.4938,-11.875 12.47565,0 c 8.60372,0 12.47565,0.44831 12.47565,1.44451 0,0.79449 -6.46875,9.39539 -14.375,19.11311 -7.90625,9.71773 -14.5623,18.20772 -14.79121,18.86663 -0.22892,0.65891 6.94296,10.48522 15.9375,21.83624 8.99453,11.35107 16.35371,20.91418 16.35371,21.25141 0,0.33724 -5.84001,0.61315 -12.9778,0.61315 l -12.97779,0 -9.20971,-12.72644 c -5.06534,-6.99955 -9.8547,-12.9333 -10.64304,-13.18611 -0.78834,-0.25282 -4.67709,4.20845 -8.64167,9.91394 C 307.49441,265.99095 309.05175,265 294.15711,265 285.81511,265 281.25,264.52649 281.25,263.66122 Z M 92.303337,211.629 C 84.161501,203.58745 77.5,196.10404 77.5,194.9992 c 0,-1.10483 1.959611,-3.90811 4.354692,-6.22951 l 4.354693,-4.22074 4.947009,3.97552 c 2.720856,2.18654 5.542495,3.97553 6.270309,3.97553 0.787674,0 1.375312,-3.41519 1.451806,-8.4375 0.07068,-4.64063 0.492555,-20.01148 0.9375,-34.15744 0.797291,-25.34803 0.858711,-25.79502 4.247881,-30.9128 5.82316,-8.7932 11.19842,-10.72534 31.35255,-11.26968 10.67455,-0.28831 19.52376,0.0941 23.125,0.99919 12.19206,3.06438 18.88046,12.03589 18.93111,25.3933 l 0.0275,7.24009 -9.67556,-0.36509 -9.67557,-0.36507 -0.86272,-6.05576 C 155.85096,124.49531 149.52739,120 136.79156,120 c -8.44724,0 -14.27112,2.51181 -17.15898,7.40056 -1.85083,3.1332 -2.13258,7.57975 -2.13258,33.65604 0,19.26176 0.46202,30.3314 1.28724,30.84141 0.70799,0.43757 3.25881,-0.93548 5.6685,-3.05122 2.40969,-2.11574 4.78355,-3.84191 5.27526,-3.83595 1.19112,0.0145 10.269,8.65486 10.269,9.77414 0,1.29509 -30.46927,31.46502 -31.77721,31.46502 -0.61386,0 -7.77762,-6.57945 -15.919453,-14.621 z"
         id="path6153" />
      <path
         style="fill:#5f94b9"
         d="m 117.79449,266.27624 c -6.3966,-1.51722 -13.43685,-6.85322 -15.96746,-12.10219 -1.27253,-2.63947 -2.552556,-8.33955 -2.8445,-12.66681 l -0.530807,-7.86777 9.672267,0.36777 9.67228,0.36776 0.4113,4.62277 C 119.18902,250.02885 125.5706,255 138.75,255 c 10.42976,0 15.9446,-2.72234 18.80924,-9.28497 1.99574,-4.57209 2.15057,-8.11087 1.52161,-34.77753 -0.77977,-33.06136 -0.8598,-33.29988 -8.64259,-25.75651 l -4.05575,3.93098 -4.3329,-3.61848 c -2.38308,-1.99016 -4.63416,-4.29273 -5.00238,-5.11679 C 136.32151,178.75259 165.58839,150 167.96727,150 c 0.79574,0 8.16833,6.73908 16.38352,14.97572 l 14.9367,14.97572 -4.26395,4.39928 c -2.34518,2.4196 -4.69654,4.39928 -5.22525,4.39928 -0.52872,0 -2.95114,-1.7471 -5.38317,-3.88245 -7.95941,-6.98845 -8.16512,-6.28251 -8.16512,28.01955 0,34.25321 -0.89485,39.67312 -7.71141,46.70601 -5.88725,6.07411 -13.43262,7.93284 -31.57797,7.77894 -8.2971,-0.0704 -16.92185,-0.56349 -19.16613,-1.09581 z M 1.2472256,262.11372 c 0.00153,-1.2437 0.4311643,-1.99651 0.9547519,-1.67291 0.5235876,0.3236 8.5904075,-16.94009 17.9262665,-38.36372 L 37.102533,183.125 48.987532,182.76951 c 8.698176,-0.26017 12.253576,0.0886 13.259568,1.30076 1.985756,2.39269 35.260941,78.65423 34.710837,79.55183 -0.253781,0.4141 -5.030908,0.569 -10.615836,0.34424 l -10.154416,-0.40866 -3.640449,-8.02884 -3.640448,-8.02884 -18.675338,0 c -13.479474,0 -19.038462,0.43754 -19.980502,1.57263 -0.717842,0.86494 -2.405629,4.38057 -3.75064,7.8125 l -2.445475,6.23987 -11.40519,0.625 C 2.2481168,264.32 1.2446953,264.17601 1.2472256,262.11372 Z M 61.034681,230.83702 C 61.714889,227.27839 52.200145,205.00147 50,205.00147 c -1.873062,0 -11.284948,20.98008 -11.261336,25.10269 0.01917,3.34886 1.425168,3.75107 11.814781,3.37978 8.577419,-0.30653 10.10776,-0.693 10.481236,-2.64692 z M 281.25,264.37546 c 0,-0.3435 5.76562,-7.69393 12.8125,-16.33431 7.04687,-8.64036 14.44109,-17.89585 16.43157,-20.56774 4.32812,-5.80972 5.23778,-3.93265 -12.96171,-26.7466 C 290.63956,192.08634 285,184.45058 285,183.75844 285,182.99887 289.88984,182.5 297.33484,182.5 l 12.33484,0 7.83032,11.875 c 4.56289,6.9198 8.67835,11.875 9.8626,11.875 1.11774,0 4.55904,-3.75685 7.64732,-8.34856 10.81094,-16.07385 9.7969,-15.40144 23.22619,-15.40144 7.43615,0 11.76389,0.48632 11.76389,1.32196 0,0.72708 -6.49801,9.23984 -14.44003,18.91725 -8.87385,10.81289 -14.29448,18.46778 -14.0625,19.85871 0.44843,2.6885 29.4671,39.90208 31.11514,39.90208 0.62556,0 1.13739,0.5625 1.13739,1.25 0,0.74852 -4.92737,1.25 -12.28211,1.25 -14.15517,0 -12.6786,0.95594 -24.61758,-15.9375 -4.00845,-5.67188 -8.17396,-10.30411 -9.2567,-10.29385 -1.08273,0.01 -6.0783,5.91651 -11.10125,13.125 L 307.35972,265 294.30486,265 C 287.12469,265 281.25,264.71896 281.25,264.37546 Z M 180,262.86076 c 0,-0.90859 23.28153,-54.91732 30.73451,-71.29826 l 4.12325,-9.0625 11.79306,0 c 7.93772,0 12.19972,0.51081 13.03696,1.5625 0.68412,0.85937 7.85348,16.75 15.93191,35.3125 8.07841,18.5625 15.74379,35.96502 17.03417,38.67229 1.29038,2.70726 2.34614,5.09788 2.34614,5.3125 0,0.21461 -4.80477,0.39021 -10.67727,0.39021 l -10.67729,0 -3.66014,-8.15776 -3.66014,-8.15776 -19.10008,0.34526 -19.10008,0.34526 -3.70719,7.8125 -3.70719,7.8125 -10.35531,0 C 184.65989,263.75 180,263.34984 180,262.86076 Z m 58.35714,-31.13996 c 1.05713,-2.75485 -8.6101,-25.98991 -11.00535,-26.4512 -1.34059,-0.25817 -3.23482,3.02756 -6.49704,11.26983 -4.60409,11.63257 -5.33634,14.81232 -3.77141,16.37723 0.45832,0.45834 5.25723,0.83334 10.66422,0.83334 7.91749,0 9.98245,-0.39495 10.60958,-2.0292 z m -145.756625,-20.99504 -15.427169,-15.4643 3.436689,-4.50574 c 4.211485,-5.52153 6.239853,-5.62625 11.435565,-0.59037 7.166709,6.94625 7.457885,5.97697 8.36962,-27.86098 0.45094,-16.73616 1.13281,-31.55437 1.51527,-32.92937 0.59897,-2.15341 1.55812,-2.43961 6.91856,-2.06442 3.96063,0.27721 6.96616,-0.17724 8.26672,-1.25 1.85186,-1.52749 1.89432,-1.40564 0.45272,1.29917 -2.17083,4.07299 -0.5508,66.39025 1.72591,66.39025 0.81833,0 3.1046,-1.6875 5.0806,-3.75 1.976,-2.0625 4.13752,-3.75 4.80337,-3.75 2.37015,0 9.57163,6.41369 9.57163,8.52456 0,1.8236 -17.19884,19.72354 -27.54866,28.67165 l -3.17366,2.74384 -15.427165,-15.46429 z M 158.75,135.72724 c 0,-3.03753 -0.28896,-6.2719 -0.64214,-7.1875 -0.50736,-1.31533 1.29619,-1.57958 8.59288,-1.25898 l 9.23501,0.40577 0.77595,5.66109 c 0.42676,3.11362 0.46427,6.16539 0.0834,6.78174 -0.38094,0.61635 -4.59692,1.12064 -9.36885,1.12064 l -8.67622,0 0,-5.52276 z m -6.6442,-12.90715 c -2.63968,-2.63968 -19.93271,-3.8222 -25.83022,-1.76631 -5.19431,1.81074 -4.76831,0.48344 0.55927,-1.74256 8.43739,-3.52537 22.3961,-1.6367 26.7557,3.62015 2.26187,2.72738 1.28035,2.65381 -1.48475,-0.11129 z"
         id="path6151" />
      <path
         style="fill:#4895ca"
         d="M 113.125,263.2283 C 104.81752,259.52019 98.75,249.46894 98.75,239.41515 l 0,-5.66515 9.21524,0 9.21524,0 0.82051,5.13121 C 119.87847,250.62229 125.51371,255 138.75,255 c 8.916,0 15.07156,-2.44529 18.3643,-7.29519 2.06414,-3.0403 2.22425,-6.10125 1.84152,-35.20481 -0.23055,-17.53125 -0.87293,-32.34864 -1.42752,-32.92753 -0.55459,-0.57888 -2.84696,0.96799 -5.09416,3.4375 -2.24722,2.46952 -4.59549,4.49003 -5.21839,4.49003 -1.98724,0 -9.71575,-6.48451 -9.71575,-8.15188 C 137.5,177.40064 165.96097,150 167.98382,150 c 1.69854,0 29.51618,27.63855 29.51618,29.32616 0,1.42844 -6.34641,8.17384 -7.69036,8.17384 -0.53496,0 -2.96249,-1.7471 -5.39451,-3.88245 -7.95516,-6.98471 -8.16425,-6.27071 -8.1721,27.90572 -0.007,32.36723 -0.70997,37.66465 -5.90817,44.55029 -5.68238,7.52699 -10.77669,8.87441 -33.45986,8.85007 -13.96801,-0.015 -21.131,-0.52632 -23.75,-1.69533 z M 3.7695753,260.9375 C 3.7803416,260.07812 11.289142,242.21875 20.455799,221.25 l 16.666648,-38.125 11.875043,-0.35549 c 8.73388,-0.26146 12.241489,0.086 13.260376,1.31374 C 63.81925,185.9646 96.25,259.75317 96.25,261.42439 c 0,0.59158 -4.4944,1.07561 -9.987555,1.07561 l -9.987555,0 -3.698969,-8.1579 -3.698967,-8.1579 -19.125978,0.3454 -19.125976,0.3454 -3.660305,7.8125 -3.660306,7.8125 -9.777194,0 c -6.9988629,0 -9.7716324,-0.44401 -9.7576197,-1.5625 z M 61.950971,232.12776 C 62.944335,229.5391 52.1081,204.375 50,204.375 c -2.1081,0 -12.944335,25.1641 -11.950971,27.75276 0.882626,2.30009 23.019316,2.30009 23.901942,0 z M 181.38437,259.0625 c 0.68988,-1.89063 8.39934,-19.75 17.13214,-39.6875 l 15.87781,-36.25 11.98912,-0.35549 c 8.6232,-0.25569 12.34853,0.0952 13.2694,1.25 1.29094,1.61881 34.09716,76.44213 34.09716,77.76763 0,0.39207 -4.52353,0.71286 -10.05228,0.71286 l -10.05228,0 -3.64544,-8.125 -3.64544,-8.125 -19.28663,0 -19.28663,0 -3.45318,8.125 -3.45317,8.125 -10.37245,0 -10.37245,0 1.25433,-3.4375 z m 57.09447,-26.875 c 1.69915,-2.06616 -8.42129,-27.64681 -11.14543,-28.17144 -1.37522,-0.26484 -3.39794,3.44111 -7.26695,13.31433 -2.9487,7.52471 -4.9805,14.29742 -4.5151,15.05046 1.21986,1.97379 21.28444,1.80457 22.92748,-0.19335 z M 283.75,261.68975 c 0,-0.44564 6.75,-9.14961 15,-19.34216 8.25,-10.19257 15,-19.40513 15,-20.47238 0,-1.06725 -6.46875,-10.00772 -14.375,-19.86771 C 291.46875,192.1475 285,183.72467 285,183.29011 285,182.85555 290.53921,182.5 297.30936,182.5 l 12.30936,0 8.30034,12.46664 c 5.07275,7.61898 8.92401,12.22731 9.90423,11.85117 0.88213,-0.33851 4.1234,-4.3616 7.2028,-8.94021 10.79231,-16.04654 9.78266,-15.3776 23.21002,-15.3776 6.47014,0 11.76389,0.32602 11.76389,0.7245 0,0.39849 -6.75,8.97641 -15,19.06207 -8.25,10.08567 -15,18.72818 -15,19.2056 0,0.76723 24.82115,33.17304 29.73432,38.82033 1.7953,2.06355 1.22456,2.1875 -10.07252,2.1875 l -11.97566,0 -9.05934,-12.5 c -4.98263,-6.875 -9.94639,-12.48935 -11.03056,-12.47634 -1.08418,0.013 -5.90874,5.62736 -10.72124,12.47634 l -8.75,12.45267 -12.1875,0.0236 c -6.70313,0.013 -12.1875,-0.34095 -12.1875,-0.78659 z M 93.38844,210.26412 C 85.337299,202.19195 78.75,195.12024 78.75,194.54919 c 0,-2.30239 5.311845,-8.29919 7.351254,-8.29919 1.19956,0 3.797746,1.6875 5.773746,3.75 1.976,2.0625 4.522959,3.75 5.659907,3.75 1.845337,0 2.154378,-3.3201 2.879723,-30.9375 0.4469,-17.01563 1.12725,-32.0625 1.51189,-33.4375 0.60228,-2.15302 1.56307,-2.43955 6.92253,-2.06442 3.96063,0.27721 6.96616,-0.17724 8.26672,-1.25 1.85186,-1.52749 1.89432,-1.40564 0.45271,1.29917 -2.17082,4.07299 -0.55079,66.39025 1.72592,66.39025 0.81833,0 3.1046,-1.6875 5.0806,-3.75 1.976,-2.0625 4.13752,-3.75 4.80337,-3.75 1.99048,0 9.57163,6.25681 9.57163,7.89956 0,1.33633 -18.8433,20.52024 -27.54906,28.04703 l -3.17406,2.74421 -14.63844,-14.67668 z M 158.75,134.47724 c 0,-2.35003 -0.28896,-5.0219 -0.64214,-5.9375 -0.50747,-1.31563 1.30109,-1.57942 8.62426,-1.25788 l 9.26639,0.40685 0.57649,4.59315 c 0.31706,2.52623 0.34045,5.01501 0.052,5.53064 -0.28849,0.51562 -4.42883,0.9375 -9.20075,0.9375 l -8.67625,0 0,-4.27276 z"
         id="path6149" />
      <path
         style="fill:#2f8ac7"
         d="m 23.4375,244.00992 c -6.04951,-0.22798 -9.6875,-0.88646 -9.6875,-1.75344 0,-1.67408 8.808711,-23.74129 17.366765,-43.50648 l 6.224177,-14.375 12.37673,-0.35399 12.37673,-0.35398 10.660167,25.35398 c 13.130167,31.2286 13.977566,33.41353 13.243726,34.14737 -0.708154,0.70815 -48.89903,1.35639 -62.560795,0.84154 z M 63.249485,233.25134 C 63.97526,231.36 54.359227,206.72304 51.799089,203.9146 c -0.857553,-0.94073 -2.117267,-1.3655 -2.799365,-0.94394 -2.126142,1.31403 -12.764945,28.0352 -11.978226,30.08536 1.038137,2.70534 25.195767,2.88524 26.227987,0.19532 z M 100.09868,240.3125 100,235 l 8.499,0 8.499,0 -0.52284,4.47852 -0.52285,4.47853 -7.35368,-0.41603 c -4.13177,-0.23375 -7.58318,0.13165 -7.87748,0.83398 -0.28808,0.6875 -0.56819,-1.14063 -0.62247,-4.0625 z m 99.60388,3.4375 -9.67244,-0.625 7.35505,-18.125 c 4.04529,-9.96875 9.58879,-23.1875 12.31889,-29.375 l 4.96384,-11.25 12.33625,0 12.33624,0 5.87406,13.125 c 8.33474,18.62313 18.86065,45.09157 18.19616,45.75605 -0.82454,0.82455 -52.40295,1.22445 -63.70805,0.49395 z m 40.05889,-12.08839 c 0.48654,-3.41615 -9.41833,-27.51247 -11.66318,-28.3739 -2.30942,-0.88621 -3.21081,0.57812 -9.19088,14.93068 -3.10819,7.45987 -4.91273,13.46472 -4.42683,14.73095 0.70914,1.848 2.45089,2.08935 12.85735,1.78161 11.27118,-0.3333 12.06168,-0.5286 12.42354,-3.06934 z m -78.94927,0.64636 C 160.36547,226.01485 160,211.65345 160,200.39374 c 0,-23.8746 -0.66332,-25.16517 -8.83383,-17.18689 l -4.90746,4.79201 -4.38325,-4.24841 -4.38324,-4.24841 4.06639,-4.28269 C 151.20781,165.05689 164.14983,155 167.5785,155 c 3.97579,0 11.86459,5.95361 23.01487,17.36914 l 7.46838,7.64603 -3.92851,3.92852 -3.92853,3.92852 -4.96973,-3.93611 c -8.34034,-6.60566 -8.48939,-6.368 -9.41482,15.01264 C 175.36907,209.37055 175,223.37287 175,230.06501 175,243.56476 174.88271,243.75 166.33495,243.75 l -4.71059,0 -0.81219,-11.44203 z M 301.25,242.92377 c 0,-0.45442 3.09375,-4.93663 6.875,-9.96048 3.78125,-5.02384 6.875,-9.86385 6.875,-10.75558 0,-0.89172 -6.46875,-9.59117 -14.375,-19.33212 -7.90625,-9.74095 -14.375,-18.31039 -14.375,-19.0432 0,-1.94496 20.24886,-1.74039 22.77631,0.23011 1.10228,0.85938 5.18273,6.48438 9.06768,12.5 4.60019,7.12314 7.85296,10.9375 9.32717,10.9375 1.44478,0 4.58508,-3.53597 8.6809,-9.77466 C 346.26987,182.23787 345.88989,182.5 358.1737,182.5 c 6.50281,0 10.5763,0.50174 10.5763,1.30271 0,0.71649 -6.46875,9.1064 -14.375,18.64425 -7.90625,9.53785 -14.375,18.2843 -14.375,19.43655 0,1.15225 3.10936,6.40296 6.9097,11.66825 l 6.9097,9.57324 -9.01893,0.37199 c -8.75378,0.36105 -9.10657,0.26 -12.0003,-3.4375 -3.76692,-4.81324 -6.90231,-4.83134 -10.30017,-0.0595 -2.55684,3.59075 -3.06475,3.75 -11.96011,3.75 -5.10944,0 -9.28989,-0.3718 -9.28989,-0.82623 z M 92.681859,209.56464 c -15.24176,-15.29293 -15.375875,-15.60789 -9.074338,-21.3107 2.55246,-2.30994 2.660237,-2.2788 7.619382,2.20148 5.455235,4.92848 8.079266,5.65565 9.264357,2.56734 0.41731,-1.08747 0.75874,-9.19772 0.75874,-18.02276 0,-8.82504 0.34143,-16.93529 0.75874,-18.02276 0.54473,-1.41957 2.4359,-1.97724 6.70509,-1.97724 l 5.94636,0 0.79491,5.79946 c 0.43719,3.18971 0.7949,11.92612 0.7949,19.41424 0,16.31675 1.2129,17.77108 8.71305,10.44737 l 4.78669,-4.67407 4.76285,4.36484 4.76285,4.36482 -14.77415,14.20418 c -8.12578,7.81229 -15.41588,14.35726 -16.20022,14.54437 -0.78434,0.18713 -7.81298,-6.06813 -15.619211,-13.90057 z"
         id="path6147" />
      <path
         style="fill:#1c81c4"
         d="m 214.56854,206.49657 c -7.17349,-0.37154 -7.29168,-0.43736 -6.49373,-3.61662 0.447,-1.781 2.4441,-6.8361 4.438,-11.23355 l 3.62528,-7.99536 10.99345,0.36197 10.99346,0.36199 3.50122,7.34989 c 1.92568,4.04245 3.82412,8.96432 4.21875,10.9375 l 0.71753,3.58761 -6.98728,0 c -5.70795,0 -7.23223,-0.45774 -8.32522,-2.5 -1.78413,-3.33368 -5.78686,-3.17275 -7.77258,0.3125 -1.4206,2.49337 -2.43147,2.76956 -8.90888,2.43407 z M 30.028275,205.3125 c 0.01555,-0.51563 1.843675,-5.4375 4.0625,-10.9375 l 4.034225,-10 11.73826,0 11.738259,0 4.101554,10.625 4.101552,10.625 -7.089812,0.38682 c -6.019575,0.32843 -7.348694,-0.001 -8.804778,-2.1875 C 51.729651,200.55136 47.981323,200.515 46.25,203.75 c -1.10839,2.07105 -2.617279,2.5 -8.79398,2.5 -4.100811,0 -7.443296,-0.42188 -7.427745,-0.9375 z m 55.731788,-4.46384 c -5.327215,-4.66075 -5.939848,-5.67709 -4.755746,-7.8896 3.137793,-5.86302 4.887386,-6.07367 10.244898,-1.23347 2.754393,2.48842 6.131366,4.52441 7.504386,4.52441 2.227099,0 2.498239,-0.84279 2.513469,-7.8125 C 101.29459,175.83552 101.76894,175 108.89579,175 l 6.10421,0 0.24009,4.6875 c 0.13205,2.57812 0.1748,6.09375 0.095,7.8125 -0.45683,9.8404 2.7234,11.15319 9.94228,4.10414 l 4.75781,-4.64588 3.82331,3.82331 3.8233,3.8233 -6.47609,5.82257 -6.47609,5.82256 -16.42731,-0.0257 -16.42731,-0.0257 -6.114937,-5.34993 z m 76.297437,4.44663 c -0.36315,-0.5876 -0.76847,-6.09754 -0.90071,-12.24433 -0.13223,-6.14677 -0.48451,-12.16034 -0.78284,-13.36346 -0.85651,-3.45418 -4.24689,-2.57481 -9.3735,2.43117 l -4.72996,4.61869 -3.83357,-3.6728 -3.83357,-3.67279 2.7118,-2.19588 C 143.6866,175.2756 146.97302,175 167.5,175 c 21.26534,0 23.75059,0.22515 26.42402,2.39381 l 2.95098,2.39382 -3.03039,3.23118 c -1.66672,1.77715 -3.3936,3.23119 -3.83751,3.23119 -0.4439,0 -3.17321,-2.0253 -6.06511,-4.50066 C 176.27999,175.19096 175,176.80925 175,193.05466 l 0,12.74856 -6.14111,0.28022 c -3.37762,0.15411 -6.43824,-0.20055 -6.80139,-0.78815 z m 134.25514,-9.51045 C 291.46569,190.029 287.5,184.9446 287.5,184.48616 c 0,-0.45842 4.92187,-0.67097 10.9375,-0.47232 l 10.9375,0.36116 5.9375,9.90302 c 3.26562,5.44667 5.9375,10.36854 5.9375,10.9375 0,0.56897 -3.62806,1.03448 -8.06236,1.03448 l -8.06237,0 -8.81263,-10.46516 z m 37.43736,9.146 c 0,-0.72555 2.86666,-5.78805 6.37036,-11.25 l 6.37036,-9.93084 10.50464,0 c 5.77755,0 10.50464,0.37824 10.50464,0.84052 0,0.96093 -11.56589,14.62227 -15.95611,18.84698 -2.363,2.2739 -4.34661,2.8125 -10.35829,2.8125 -4.38365,0 -7.4356,-0.54145 -7.4356,-1.31916 z"
         id="path6145" />
    </g>
  </g>
</svg>
