<?xml version="1.0" encoding="UTF-8" standalone="no"?>
<!-- Created with Inkscape (http://www.inkscape.org/) -->

<svg
   xmlns:dc="http://purl.org/dc/elements/1.1/"
   xmlns:cc="http://creativecommons.org/ns#"
   xmlns:rdf="http://www.w3.org/1999/02/22-rdf-syntax-ns#"
   xmlns:svg="http://www.w3.org/2000/svg"
   xmlns="http://www.w3.org/2000/svg"
   xmlns:sodipodi="http://sodipodi.sourceforge.net/DTD/sodipodi-0.dtd"
   xmlns:inkscape="http://www.inkscape.org/namespaces/inkscape"
   id="svg5485"
   version="1.1"
   inkscape:version="0.91 r13725"
   width="300"
   height="300"
   viewBox="0 0 300 300"
   sodipodi:docname="cross-platform.svg">
  <metadata
     id="metadata5491">
    <rdf:RDF>
      <cc:Work
         rdf:about="">
        <dc:format>image/svg+xml</dc:format>
        <dc:type
           rdf:resource="http://purl.org/dc/dcmitype/StillImage" />
        <dc:title></dc:title>
      </cc:Work>
    </rdf:RDF>
  </metadata>
  <defs
     id="defs5489" />
  <sodipodi:namedview
     pagecolor="#ffffff"
     bordercolor="#666666"
     borderopacity="1"
     objecttolerance="10"
     gridtolerance="10"
     guidetolerance="10"
     inkscape:pageopacity="0"
     inkscape:pageshadow="2"
     inkscape:window-width="1232"
     inkscape:window-height="755"
     id="namedview5487"
     showgrid="false"
     inkscape:zoom="0.3382263"
     inkscape:cx="440.80383"
     inkscape:cy="446.11836"
     inkscape:window-x="48"
     inkscape:window-y="1"
     inkscape:window-maximized="1"
     inkscape:current-layer="svg5485" />
  <g
     id="g5532"
     transform="matrix(0.3669724,0,0,0.3669724,0,6e-5)">
    <rect
       y="0"
       x="0"
       height="817.5"
       width="817.5"
       id="rect5530"
       style="opacity:0;fill:#000000;fill-opacity:0.99607843;stroke:none;stroke-width:12;stroke-linecap:round;stroke-linejoin:round;stroke-miterlimit:4;stroke-dasharray:72, 72;stroke-dashoffset:0;stroke-opacity:1" />
    <g
       id="g5495">
      <path
         inkscape:connector-curvature="0"
         id="path5509"
         d="m 102.1875,612.81375 c 15.29688,-0.19886 40.32812,-0.19886 55.625,0 15.29687,0.19886 2.78125,0.36157 -27.8125,0.36157 -30.59375,0 -43.109375,-0.16271 -27.8125,-0.36157 z m 145,0 c 15.29687,-0.19886 40.32812,-0.19886 55.625,0 15.29687,0.19886 2.78125,0.36157 -27.8125,0.36157 -30.59375,0 -43.10938,-0.16271 -27.8125,-0.36157 z m 416.25,0.0147 c 3.60937,-0.2525 9.51562,-0.2525 13.125,0 3.60937,0.2525 0.65625,0.4591 -6.5625,0.4591 -7.21875,0 -10.17188,-0.2066 -6.5625,-0.4591 z m 36.25,0 c 3.60937,-0.2525 9.51562,-0.2525 13.125,0 3.60937,0.2525 0.65625,0.4591 -6.5625,0.4591 -7.21875,0 -10.17188,-0.2066 -6.5625,-0.4591 z m -660.625,-1.25759 c 5.328125,-0.23431 14.046875,-0.23431 19.375,0 5.328125,0.23431 0.96875,0.42603 -9.6875,0.42603 -10.65625,0 -15.015625,-0.19172 -9.6875,-0.42603 z m 307.5,0 c 5.32812,-0.23431 14.04687,-0.23431 19.375,0 5.32812,0.23431 0.96875,0.42603 -9.6875,0.42603 -10.65625,0 -15.01563,-0.19172 -9.6875,-0.42603 z m 299.6875,-0.34 c -1.66666,-1.0941 -1.66666,-1.36762 0,-2.46172 1.03125,-0.67698 3.5625,-1.14945 5.625,-1.04995 l 3.75,0.1809 -4.0625,0.50416 C 649.32812,608.68152 647.5,609.39961 647.5,610 c 0,0.60039 1.82812,1.31847 4.0625,1.59575 l 4.0625,0.50416 -3.75,0.1809 c -2.0625,0.0995 -4.59375,-0.37297 -5.625,-1.04995 z m 78.4375,0.36489 c 2.23437,-0.27728 4.0625,-0.96946 4.0625,-1.53819 0,-1.41571 -8.41472,-2.29362 -10.3292,-1.07765 -0.85019,0.53999 -14.38595,0.99043 -30.07945,1.00095 L 659.80769,610 l -3.65384,-3.65385 c -3.161,-3.161 -3.65385,-4.58996 -3.65385,-10.59404 l 0,-6.94018 -20.3125,-0.37667 -20.3125,-0.37667 20.3125,-0.2793 c 17.09809,-0.23509 20.3125,-0.576 20.3125,-2.15429 0,-1.63976 -7.64535,-1.88662 -60.9375,-1.96765 -33.51563,-0.051 -63.46875,-0.54306 -66.5625,-1.09355 -3.09375,-0.55049 -4.34641,-1.07129 -2.78369,-1.15734 2.71223,-0.14935 2.75148,-0.29358 0.86378,-3.17458 -1.7269,-2.63558 -1.96422,-9.5277 -1.87232,-54.375 l 0.10524,-51.35688 -86.2815,0 -86.28151,0 0,43.65835 c 0,40.52826 0.15684,43.69932 2.1875,44.22999 2.08334,0.54443 2.08334,0.57856 0,0.71666 -1.63646,0.1085 -2.1875,1.2407 -2.1875,4.49464 l 0,4.34963 25.9375,0.36465 25.9375,0.36465 -25.9375,0.28572 -25.9375,0.28571 0,10.625 0,10.625 -146.25,0 -146.25,0 0,-94.15711 0,-94.1571 2.893064,-2.7179 C 62.033301,398.75265 62.096806,398.75 124.14306,398.75 l 62.10694,0 0,-94.78211 0,-94.7821 2.89306,-2.7179 2.89306,-2.71789 220.01405,0 220.01404,0 2.7179,2.89306 2.71789,2.89306 0,77.10694 0,77.10694 21.97115,0 21.97116,0 3.65384,3.65385 3.65385,3.65384 0,41.97116 0,41.97115 6.25,0 6.25,0 0,-18.22115 0,-18.22116 3.65385,-3.65384 3.65384,-3.65385 50.81731,0 50.81731,0 3.65384,3.65385 3.65385,3.65384 0,83.19733 0,83.19736 -3.18321,0.79892 c -1.75076,0.43943 -3.53201,0.45014 -3.95834,0.0239 -0.42631,-0.4264 0.44364,-0.7752 1.93321,-0.7752 1.48959,0 2.70834,-0.63281 2.70834,-1.40625 0,-0.90834 -1.3831,-1.12963 -3.90625,-0.625 -2.14844,0.42969 -22.39844,0.78125 -45,0.78125 -35.29969,0 -41.09375,0.25878 -41.09375,1.83532 0,1.48719 2.78612,1.91044 14.6875,2.23122 l 14.6875,0.39587 -14.6875,0.2688 L 725,588.75 l 0,6.59686 c 0,3.9476 -0.78145,7.71257 -1.94588,9.375 -1.87193,2.67257 -1.81256,2.77886 1.5625,2.79728 1.92961,0.01 4.35213,0.57302 5.38338,1.25 1.66666,1.0941 1.66666,1.36762 0,2.46172 -1.03125,0.67698 -3.5625,1.14945 -5.625,1.04995 l -3.75,-0.1809 4.0625,-0.50416 z m -32.23734,-9.6607 c 3.32058,-4.00104 -1.55653,-10.14721 -5.88766,-7.41968 -4.32791,2.72552 -2.78604,9.23463 2.1875,9.23463 1.20664,0 2.87171,-0.81673 3.70016,-1.81495 z m 68.75,-23.75 c 3.32058,-4.00104 -1.55653,-10.14721 -5.88766,-7.41968 C 750.98459,573.49089 752.52646,580 757.5,580 c 1.20664,0 2.87171,-0.81673 3.70016,-1.81495 z m -152.5,-2.5 c 3.32058,-4.00104 -1.55653,-10.14721 -5.88766,-7.41968 -4.32791,2.72552 -2.78604,9.23463 2.1875,9.23463 1.20664,0 2.87171,-0.81673 3.70016,-1.81495 z M 12.220541,610.33312 c 2.940048,-0.26405 7.440048,-0.26033 10,0.009 2.559953,0.26858 0.154459,0.48463 -5.345541,0.48009 -5.5,-0.005 -7.5945064,-0.2243 -4.654459,-0.48836 z m 371.249999,0 c 2.94005,-0.26405 7.44005,-0.26033 10,0.009 2.55995,0.26858 0.15446,0.48463 -5.34554,0.48009 -5.5,-0.005 -7.59451,-0.2243 -4.65446,-0.48836 z M 0,608.75 c 0,-0.6875 1.40625,-1.25 3.125,-1.25 1.71875,0 3.125,0.5625 3.125,1.25 0,0.6875 -1.40625,1.25 -3.125,1.25 C 1.40625,610 0,609.4375 0,608.75 Z m 398.75,0 c 0,-0.6875 1.40625,-1.25 3.125,-1.25 1.71875,0 3.125,0.5625 3.125,1.25 0,0.6875 -1.40625,1.25 -3.125,1.25 -1.71875,0 -3.125,-0.5625 -3.125,-1.25 z m -382.048322,-2.18011 8.576677,-0.44046 -2.326677,-2.75222 -2.326678,-2.75221 2.8125,2.38124 c 1.546875,1.30967 2.8125,2.85655 2.8125,3.4375 0,0.58093 -4.078125,0.94608 -9.0625,0.81143 l -9.0625,-0.24482 8.576678,-0.44046 z M 378.75,606.44374 c 0,-0.58095 1.26562,-2.12783 2.8125,-3.4375 l 2.8125,-2.38124 -2.32667,2.75221 -2.32668,2.75222 8.57668,0.44046 8.57667,0.44046 -9.0625,0.24482 c -4.98438,0.13465 -9.0625,-0.2305 -9.0625,-0.81143 z M 18.848684,595.52084 c 0.05998,-1.45619 0.356176,-1.75238 0.755208,-0.75522 0.361089,0.90234 0.31668,1.98048 -0.09869,2.39584 -0.415365,0.41536 -0.710801,-0.32292 -0.656525,-1.64062 z m 366.250006,0 c 0.06,-1.45619 0.35617,-1.75238 0.7552,-0.75522 0.36108,0.90234 0.31668,1.98048 -0.0986,2.39584 -0.41536,0.41536 -0.7108,-0.32292 -0.65652,-1.64062 z m 175.9053,-7.70393 c 7.08345,-0.22321 18.33345,-0.2223 25,0.002 6.66656,0.22431 0.87101,0.40695 -12.87899,0.40584 -13.75,-10e-4 -19.20445,-0.18464 -12.12101,-0.40785 z m 210.55851,0.006 c 4.64062,-0.24051 12.23437,-0.24051 16.875,0 4.64062,0.24051 0.84375,0.43729 -8.4375,0.43729 -9.28125,0 -13.07813,-0.19678 -8.4375,-0.43729 z m -239.40288,-1.22522 c 2.21904,-0.27614 6.15654,-0.28068 8.75,-0.01 2.59346,0.2706 0.77788,0.49652 -4.03462,0.50207 -4.8125,0.005 -6.93443,-0.21585 -4.71538,-0.49199 z m 268.17007,0.005 c 1.90007,-0.28733 4.71257,-0.27964 6.25,0.017 1.53742,0.2967 -0.0171,0.53177 -3.45469,0.5224 -3.4375,-0.01 -4.69539,-0.25215 -2.79531,-0.53947 z m -278.76719,-1.2146 c 1.20312,-0.3144 3.17187,-0.3144 4.375,0 1.20312,0.31441 0.21875,0.57166 -2.1875,0.57166 -2.40625,0 -3.39063,-0.25725 -2.1875,-0.57166 z M 516.25,583.75 c 0,-0.6875 0.5625,-1.25 1.25,-1.25 0.6875,0 1.25,0.5625 1.25,1.25 0,0.6875 -0.5625,1.25 -1.25,1.25 -0.6875,0 -1.25,-0.5625 -1.25,-1.25 z m -72.1875,-13.43446 c 9.45312,-0.21235 24.92187,-0.21235 34.375,0 9.45312,0.21236 1.71875,0.3861 -17.1875,0.3861 -18.90625,0 -26.64063,-0.17374 -17.1875,-0.3861 z m 59.375,-1.2308 c 2.92187,-0.26317 7.70312,-0.26317 10.625,0 2.92187,0.26317 0.53125,0.4785 -5.3125,0.4785 -5.84375,0 -8.23438,-0.21533 -5.3125,-0.4785 z m 0,-3.75 c 2.92187,-0.26317 7.70312,-0.26317 10.625,0 2.92187,0.26317 0.53125,0.4785 -5.3125,0.4785 -5.84375,0 -8.23438,-0.21533 -5.3125,-0.4785 z m -15.625,-1.1964 c 1.20312,-0.3144 3.17187,-0.3144 4.375,0 1.20312,0.31441 0.21875,0.57166 -2.1875,0.57166 -2.40625,0 -3.39063,-0.25725 -2.1875,-0.57166 z m -5.625,-2.46619 c 0.85937,-0.34676 2.26562,-0.34676 3.125,0 0.85937,0.34676 0.15625,0.63049 -1.5625,0.63049 -1.71875,0 -2.42188,-0.28373 -1.5625,-0.63049 z m -9.375,-1.28381 c 1.20312,-0.3144 3.17187,-0.3144 4.375,0 1.20312,0.31441 0.21875,0.57166 -2.1875,0.57166 -2.40625,0 -3.39063,-0.25725 -2.1875,-0.57166 z m -118.96381,-2.3675 c 0.06,-1.45619 0.35617,-1.75238 0.7552,-0.75522 0.36108,0.90234 0.31668,1.98048 -0.0986,2.39584 -0.41536,0.41536 -0.7108,-0.32292 -0.65652,-1.64062 z m 115,0 c 0.06,-1.45619 0.35617,-1.75238 0.7552,-0.75522 0.36108,0.90234 0.31668,1.98048 -0.0986,2.39584 -0.41536,0.41536 -0.7108,-0.32292 -0.65652,-1.64062 z M 355.17571,553.75 c 0,-1.03125 0.48343,-3 1.07429,-4.375 0.67715,-1.5758 1.07429,-1.80685 1.07429,-0.625 0,1.03125 -0.48343,3 -1.07429,4.375 -0.67715,1.5758 -1.07429,1.80685 -1.07429,0.625 z m 111.78858,-1.96429 c -0.45978,-1.83189 -0.59489,-3.57177 -0.30024,-3.86642 0.29464,-0.29464 0.91189,0.96311 1.37166,2.795 0.45978,1.83188 0.59489,3.57177 0.30024,3.86642 -0.29464,0.29464 -0.91189,-0.96311 -1.37166,-2.795 z M 357.67571,545 c 0,-1.03125 0.48343,-3 1.07429,-4.375 0.67715,-1.5758 1.07429,-1.80685 1.07429,-0.625 0,1.03125 -0.48343,3 -1.07429,4.375 -0.67715,1.5758 -1.07429,1.80685 -1.07429,0.625 z m 106.78858,-1.96429 c -0.45978,-1.83189 -0.59489,-3.57177 -0.30024,-3.86642 0.29464,-0.29464 0.91189,0.96311 1.37166,2.795 0.45978,1.83188 0.59489,3.57177 0.30024,3.86642 -0.29464,0.29464 -0.91189,-0.96311 -1.37166,-2.795 z M 360.17571,536.25 c 0,-1.03125 0.48343,-3 1.07429,-4.375 0.67715,-1.5758 1.07429,-1.80685 1.07429,-0.625 0,1.03125 -0.48343,3 -1.07429,4.375 -0.67715,1.5758 -1.07429,1.80685 -1.07429,0.625 z m 101.17298,-4.47916 c 0.06,-1.45619 0.35617,-1.75238 0.7552,-0.75522 0.36108,0.90234 0.31668,1.98048 -0.0986,2.39584 -0.41536,0.41536 -0.7108,-0.32292 -0.65652,-1.64062 z M 363.92571,523.75 c 0,-1.03125 0.48343,-3 1.07429,-4.375 0.67715,-1.5758 1.07429,-1.80685 1.07429,-0.625 0,1.03125 -0.48343,3 -1.07429,4.375 -0.67715,1.5758 -1.07429,1.80685 -1.07429,0.625 z m 94.28858,-1.96429 c -0.45978,-1.83189 -0.59489,-3.57177 -0.30024,-3.86642 0.29464,-0.29464 0.91189,0.96311 1.37166,2.795 0.45978,1.83188 0.59489,3.57177 0.30024,3.86642 -0.29464,0.29464 -0.91189,-0.96311 -1.37166,-2.795 z M 408.8634,499.80706 c -3.93266,-1.46751 -6.28389,-4.66929 -6.28389,-8.55706 0,-8.70905 11.61173,-12.31128 16.96637,-5.26336 5.19374,6.83613 -2.55033,16.85502 -10.68248,13.82042 z"
         style="fill:#fde69d" />
      <path
         inkscape:connector-curvature="0"
         id="path5507"
         d="m 94.138967,612.81474 c 10.182683,-0.21035 26.495183,-0.20987 36.249993,10e-4 9.75483,0.21095 1.42354,0.38305 -18.51396,0.38245 -19.9375,-5.9e-4 -27.918715,-0.17317 -17.736033,-0.38352 z m 181.249993,0 c 10.18269,-0.21035 26.49519,-0.20987 36.25,10e-4 9.75483,0.21095 1.42354,0.38305 -18.51396,0.38245 -19.9375,-5.9e-4 -27.91871,-0.17317 -17.73604,-0.38352 z m 386.17354,0.0246 c 2.57812,-0.26967 6.79687,-0.26967 9.375,0 2.57812,0.26969 0.46875,0.49033 -4.6875,0.49033 -5.15625,0 -7.26563,-0.22064 -4.6875,-0.49033 z m 43.75,0 c 2.57812,-0.26967 6.79687,-0.26967 9.375,0 2.57812,0.26969 0.46875,0.49033 -4.6875,0.49033 -5.15625,0 -7.26563,-0.22064 -4.6875,-0.49033 z m -666.826015,-1.2661 c 4.323816,-0.24479 11.073816,-0.24278 15,0.005 3.926182,0.24726 0.388515,0.44754 -7.861485,0.44507 -8.25,-0.003 -11.462333,-0.20477 -7.138515,-0.44956 z m 313.750005,0 c 4.32381,-0.24479 11.07381,-0.24278 15,0.005 3.92617,0.24726 0.38851,0.44754 -7.86149,0.44507 -8.25,-0.003 -11.46234,-0.20477 -7.13851,-0.44956 z m 296.8498,0.0605 c 1.21621,-0.31693 2.90371,-0.29609 3.75,0.0464 0.84629,0.34242 -0.14879,0.60172 -2.21129,0.57624 -2.0625,-0.0255 -2.75492,-0.30562 -1.53871,-0.62255 z m 75,0 c 1.21621,-0.31693 2.90371,-0.29609 3.75,0.0464 0.84629,0.34242 -0.14879,0.60172 -2.21129,0.57624 -2.0625,-0.0255 -2.75492,-0.30562 -1.53871,-0.62255 z M 12.1875,610.34575 c 2.234375,-0.27727 5.890625,-0.27727 8.125,0 2.234375,0.27729 0.40625,0.50416 -4.0625,0.50416 -4.46875,0 -6.296875,-0.22687 -4.0625,-0.50416 z m 372.5,0 c 2.23437,-0.27727 5.89062,-0.27727 8.125,0 2.23437,0.27729 0.40625,0.50416 -4.0625,0.50416 -4.46875,0 -6.29688,-0.22687 -4.0625,-0.50416 z M 645,610 c 0,-0.6875 0.5957,-1.25 1.32378,-1.25 0.72807,0 0.97612,0.5625 0.55122,1.25 -0.4249,0.6875 -1.0206,1.25 -1.32378,1.25 C 645.24805,611.25 645,610.6875 645,610 Z m 84.375,0 c -0.4249,-0.6875 -0.17685,-1.25 0.55122,-1.25 0.72808,0 1.32378,0.5625 1.32378,1.25 0,0.6875 -0.24805,1.25 -0.55122,1.25 -0.30318,0 -0.89888,-0.5625 -1.32378,-1.25 z M 0,608.75 c 0,-0.6875 1.125,-1.25 2.5,-1.25 1.375,0 2.5,0.5625 2.5,1.25 C 5,609.4375 3.875,610 2.5,610 1.125,610 0,609.4375 0,608.75 Z m 400,0 c 0,-0.6875 1.125,-1.25 2.5,-1.25 1.375,0 2.5,0.5625 2.5,1.25 0,0.6875 -1.125,1.25 -2.5,1.25 -1.375,0 -2.5,-0.5625 -2.5,-1.25 z m 256.19812,-2.35956 C 652.99055,603.18286 652.5,601.7736 652.5,595.76643 l 0,-6.92591 -12.1875,-0.40865 -12.1875,-0.40864 12.1875,-0.26162 c 9.88372,-0.21216 12.1875,-0.61604 12.1875,-2.13661 0,-1.63976 -7.64535,-1.88662 -60.9375,-1.96765 -33.51563,-0.051 -63.46875,-0.54306 -66.5625,-1.09355 -3.09375,-0.55049 -4.32747,-1.07129 -2.74163,-1.15734 2.72557,-0.1479 2.77688,-0.30852 0.9375,-2.9346 -1.68487,-2.40549 -1.94587,-9.69889 -1.94587,-54.375 l 0,-51.59686 -86.25,0 -86.25,0 0,43.64584 c 0,33.74707 0.35437,43.78882 1.5625,44.27631 1.25,0.50439 1.25,0.65021 0,0.72916 -0.93077,0.0588 -1.5625,1.85196 -1.5625,4.43522 l 0,4.33652 15.3125,0.3932 15.3125,0.3932 -15.3125,0.27027 -15.3125,0.27028 0,10.625 0,10.625 -146.25,0 -146.25,0 0,-94.15711 0,-94.1571 2.893064,-2.7179 C 62.033301,398.75265 62.096806,398.75 124.14306,398.75 l 62.10694,0 0,-94.78211 0,-94.7821 2.89306,-2.7179 2.89306,-2.71789 220.01405,0 220.01404,0 2.7179,2.89306 2.71789,2.89306 0,77.10694 0,77.10694 21.97115,0 21.97116,0 3.65384,3.65385 3.65385,3.65384 0,41.97116 0,41.97115 6.25,0 6.25,0 0,-18.22115 0,-18.22116 3.65385,-3.65384 3.65384,-3.65385 50.81731,0 50.81731,0 3.65384,3.65385 3.65385,3.65384 -0.0191,83.53366 c -0.01,45.9435 -0.4324,82.97115 -0.9375,82.28365 -0.59209,-0.8059 -17.01709,-1.11335 -46.23087,-0.86537 -37.79925,0.32086 -45.3125,0.67448 -45.3125,2.13273 0,1.29708 2.33829,1.85943 9.0625,2.1795 l 9.0625,0.4314 -9.0625,0.24836 L 725,588.75 l 0,6.59686 c 0,3.85933 -0.78303,7.7148 -1.88693,9.29083 -1.78425,2.54737 -1.69922,2.72397 1.5625,3.24559 3.12207,0.49928 3.03423,0.58074 -0.92557,0.85839 -2.40625,0.16873 -17.75771,0.54079 -34.11438,0.82683 l -29.73937,0.52006 -3.69813,-3.69812 z m 36.25204,-4.45539 c 3.32058,-4.00104 -1.55654,-10.14721 -5.88766,-7.41968 -4.32791,2.72552 -2.78604,9.23463 2.1875,9.23463 1.20664,0 2.87171,-0.81673 3.70016,-1.81495 z m 68.75,-23.75 c 3.32058,-4.00104 -1.55654,-10.14721 -5.88766,-7.41968 C 750.98459,573.49089 752.52646,580 757.5,580 c 1.20664,0 2.87171,-0.81673 3.70016,-1.81495 z m -152.5,-2.5 c 3.32058,-4.00104 -1.55654,-10.14721 -5.88766,-7.41968 -4.32791,2.72552 -2.78604,9.23463 2.1875,9.23463 1.20664,0 2.87171,-0.81673 3.70016,-1.81495 z m 43.79984,-63.9062 0,-49.47116 3.65385,-3.65384 c 3.07886,-3.07887 4.65249,-3.65385 10,-3.65385 l 6.34615,0 0,-34.375 0,-34.375 -67.5,0 -67.5,0 0,87.5 0,87.5 57.5,0 57.5,0 0,-49.47115 z m -2.16371,96.10491 c 1.21621,-0.31692 2.90371,-0.29609 3.75,0.0464 0.84629,0.34241 -0.14879,0.60171 -2.21129,0.57624 -2.0625,-0.0255 -2.75492,-0.30563 -1.53871,-0.62256 z M 12.1875,606.59575 c 2.234375,-0.27727 5.890625,-0.27727 8.125,0 2.234375,0.27729 0.40625,0.50416 -4.0625,0.50416 -4.46875,0 -6.296875,-0.22687 -4.0625,-0.50416 z m 372.5,0 c 2.23437,-0.27727 5.89062,-0.27727 8.125,0 2.23437,0.27729 0.40625,0.50416 -4.0625,0.50416 -4.46875,0 -6.29688,-0.22687 -4.0625,-0.50416 z M 23.006235,603.4375 20.625,600.625 l 2.8125,2.38124 c 2.643056,2.23777 3.381551,3.24376 2.381235,3.24376 -0.237196,0 -1.502821,-1.26563 -2.8125,-2.8125 z M 380.625,603.75 c 1.24436,-1.375 2.54372,-2.5 2.88747,-2.5 0.34375,0 -0.39311,1.125 -1.63747,2.5 -1.24436,1.375 -2.54373,2.5 -2.88748,2.5 -0.34375,0 0.39312,-1.125 1.63748,-2.5 z m 177.23949,-15.92813 c 4.66921,-0.24116 11.98171,-0.23936 16.25,0.004 4.26827,0.24336 0.44801,0.44067 -8.48949,0.43848 -8.9375,-0.002 -12.42974,-0.20129 -7.76051,-0.44245 z m 221.82301,0.0129 c 2.92187,-0.26316 7.70312,-0.26316 10.625,0 2.92187,0.26317 0.53125,0.4785 -5.3125,0.4785 -5.84375,0 -8.23438,-0.21533 -5.3125,-0.4785 z m -246.875,-1.23005 c 1.89062,-0.28641 4.98437,-0.28641 6.875,0 1.89062,0.2864 0.34375,0.52074 -3.4375,0.52074 -3.78125,0 -5.32813,-0.23434 -3.4375,-0.52074 z m 269.38958,0.0113 c 1.55488,-0.29899 3.80488,-0.28764 5,0.0253 1.19511,0.31286 -0.0771,0.5575 -2.82708,0.54363 -2.75,-0.0139 -3.72781,-0.26987 -2.17292,-0.56886 z m -280.61579,-1.23216 c 1.21621,-0.31693 2.90371,-0.29609 3.75,0.0464 0.84629,0.34241 -0.14879,0.60172 -2.21129,0.57624 -2.0625,-0.0255 -2.75492,-0.30562 -1.53871,-0.62255 z m 289.35121,0.0384 c 0.85937,-0.34676 2.26562,-0.34676 3.125,0 0.85937,0.34676 0.15625,0.63049 -1.5625,0.63049 -1.71875,0 -2.42188,-0.28373 -1.5625,-0.63049 z M 516.25,583.75 c 0,-0.6875 0.5625,-1.25 1.25,-1.25 0.6875,0 1.25,0.5625 1.25,1.25 0,0.6875 -0.5625,1.25 -1.25,1.25 -0.6875,0 -1.25,-0.5625 -1.25,-1.25 z m -56.5625,-13.43134 c 6.35937,-0.22686 16.76562,-0.22686 23.125,0 6.35937,0.22686 1.15625,0.41249 -11.5625,0.41249 -12.71875,0 -17.92188,-0.18563 -11.5625,-0.41249 z m 46.25,-1.22291 c 2.23437,-0.27727 5.89062,-0.27727 8.125,0 2.23437,0.27729 0.40625,0.50416 -4.0625,0.50416 -4.46875,0 -6.29688,-0.22687 -4.0625,-0.50416 z m 0,-3.75 c 2.23437,-0.27727 5.89062,-0.27727 8.125,0 2.23437,0.27729 0.40625,0.50416 -4.0625,0.50416 -4.46875,0 -6.29688,-0.22687 -4.0625,-0.50416 z m -18.125,-1.20741 c 1.20312,-0.3144 3.17187,-0.3144 4.375,0 1.20312,0.31441 0.21875,0.57166 -2.1875,0.57166 -2.40625,0 -3.39063,-0.25725 -2.1875,-0.57166 z m -4.29688,-2.49223 c 0.90234,-0.36109 1.98048,-0.31669 2.39584,0.0986 0.41536,0.41536 -0.32292,0.7108 -1.64062,0.65652 -1.45619,-0.06 -1.75238,-0.35617 -0.75522,-0.7552 z m -9.42933,-1.26235 c 1.21621,-0.31692 2.90371,-0.29609 3.75,0.0464 0.84628,0.34241 -0.14879,0.60171 -2.21129,0.57623 -2.0625,-0.0255 -2.75492,-0.30562 -1.53871,-0.62255 z m -118.9876,-7.36292 c 0.06,-1.45619 0.35617,-1.75238 0.7552,-0.75522 0.36108,0.90234 0.31668,1.98048 -0.0986,2.39584 -0.41536,0.41536 -0.7108,-0.32292 -0.65652,-1.64062 z m 49.99203,-56.31442 C 403.66582,494.89496 402.5,492.43957 402.5,491.25 c 0,-4.19254 4.883,-8.75 9.375,-8.75 4.492,0 9.375,4.55746 9.375,8.75 0,4.19254 -4.883,8.75 -9.375,8.75 -3.04152,0 -4.90526,-0.90479 -6.78427,-3.29358 z"
         style="fill:#75c0ea" />
      <path
         inkscape:connector-curvature="0"
         id="path5505"
         d="m 82.229403,612.827 c 3.632421,-0.25331 9.257421,-0.25065 12.5,0.006 3.242578,0.25656 0.270597,0.4638 -6.604403,0.46055 -6.875,-0.004 -9.528019,-0.21316 -5.895597,-0.46646 z m 228.749997,0 c 3.63242,-0.25331 9.25742,-0.25065 12.5,0.006 3.24258,0.25656 0.2706,0.4638 -6.6044,0.46055 -6.875,-0.004 -9.52803,-0.21316 -5.8956,-0.46646 z m 348.10689,0.0567 c 1.21621,-0.31693 2.90371,-0.29609 3.75,0.0464 0.84628,0.34242 -0.14879,0.60172 -2.21129,0.57624 -2.0625,-0.0255 -2.75493,-0.30562 -1.53871,-0.62255 z m 55,0 c 1.21621,-0.31693 2.90371,-0.29609 3.75,0.0464 0.84628,0.34242 -0.14879,0.60172 -2.21129,0.57624 -2.0625,-0.0255 -2.75493,-0.30562 -1.53871,-0.62255 z M 34.0625,611.60469 c 1.890625,-0.28642 4.984375,-0.28642 6.875,0 1.890625,0.2864 0.34375,0.52073 -3.4375,0.52073 -3.78125,0 -5.328125,-0.23433 -3.4375,-0.52073 z m 330,0 c 1.89062,-0.28642 4.98437,-0.28642 6.875,0 1.89062,0.2864 0.34375,0.52073 -3.4375,0.52073 -3.78125,0 -5.32813,-0.23433 -3.4375,-0.52073 z m 284.45312,0.0414 c 0.90234,-0.36108 1.98048,-0.31668 2.39584,0.0986 0.41536,0.41536 -0.32292,0.7108 -1.64062,0.65652 -1.45619,-0.06 -1.75238,-0.35617 -0.75522,-0.7552 z m 77.5,0 c 0.90234,-0.36108 1.98048,-0.31668 2.39584,0.0986 0.41536,0.41536 -0.32292,0.7108 -1.64062,0.65652 -1.45619,-0.06 -1.75238,-0.35617 -0.75522,-0.7552 z M 9.6875,610.42215 c 0.859375,-0.34676 2.265625,-0.34676 3.125,0 0.859375,0.34676 0.15625,0.63049 -1.5625,0.63049 -1.71875,0 -2.421875,-0.28373 -1.5625,-0.63049 z m 382.5,0 c 0.85937,-0.34676 2.26562,-0.34676 3.125,0 0.85937,0.34676 0.15625,0.63049 -1.5625,0.63049 -1.71875,0 -2.42188,-0.28373 -1.5625,-0.63049 z M 658.46892,608.0515 C 653.88021,605.56129 652.5,602.58645 652.5,595.18634 c 0,-3.81282 -0.60592,-6.4725 -1.5625,-6.85849 -1.25,-0.50439 -1.25,-0.65021 0,-0.72916 0.85937,-0.0543 1.5625,-0.94244 1.5625,-1.97369 0,-1.64093 -7.57634,-1.875 -60.68708,-1.875 -64.81473,0 -66.02585,-0.108 -69.27587,-6.18076 -0.8228,-1.53743 -1.28705,-20.92078 -1.28705,-53.73707 l 0,-51.33217 -86.25,0 -86.25,0 0,60 0,60 -146.25,0 -146.25,0 0,-93.80681 0,-93.80683 3.068181,-3.06817 3.068183,-3.06819 61.931816,0 61.93182,0 0,-94.43181 0,-94.43183 3.06819,-3.06817 3.06817,-3.06819 219.48864,0 219.48864,0 3.06817,3.06819 3.06819,3.06817 0,76.93183 0,76.93181 21.97115,0 21.97116,0 3.65384,3.65385 3.65385,3.65384 0,41.97116 0,41.97115 6.25,0 6.25,0 0,-18.22115 0,-18.22116 3.65385,-3.65384 3.65384,-3.65385 50.81731,0 50.81731,0 3.65384,3.65385 3.65385,3.65384 0,81.95716 0,81.95715 -2.8125,0.1551 c -1.54687,0.0852 -22.35937,0.39387 -46.25,0.68571 -36.04202,0.44029 -43.4375,0.8271 -43.4375,2.27196 0,0.95775 1.26563,1.98512 2.8125,2.28307 l 2.8125,0.54171 -2.8125,0.17023 c -2.52412,0.15277 -2.8125,0.81947 -2.8125,6.50239 0,13.92494 -2.47171,14.93174 -36.50042,14.86778 -21.05454,-0.0396 -27.33715,-0.43674 -30.03065,-1.89845 z m 33.98124,-6.11645 c 3.32058,-4.00104 -1.55654,-10.14721 -5.88766,-7.41968 -4.32791,2.72552 -2.78604,9.23463 2.1875,9.23463 1.20664,0 2.87171,-0.81673 3.70016,-1.81495 z m 68.75,-23.75 c 3.32058,-4.00104 -1.55654,-10.14721 -5.88766,-7.41968 C 750.98459,573.49089 752.52646,580 757.5,580 c 1.20664,0 2.87171,-0.81673 3.70016,-1.81495 z m -152.5,-2.5 c 3.32058,-4.00104 -1.55654,-10.14721 -5.88766,-7.41968 -4.32791,2.72552 -2.78604,9.23463 2.1875,9.23463 1.20664,0 2.87171,-0.81673 3.70016,-1.81495 z m 43.79984,-63.9062 0,-49.47116 3.65385,-3.65384 c 3.07886,-3.07887 4.65249,-3.65385 10,-3.65385 l 6.34615,0 0,-34.375 0,-34.375 -67.5,0 -67.5,0 0,87.5 0,87.5 57.5,0 57.5,0 0,-49.47115 z M 680,467.5 c 0,-0.6875 -0.5625,-1.25 -1.25,-1.25 -0.6875,0 -1.25,0.5625 -1.25,1.25 0,0.6875 0.5625,1.25 1.25,1.25 0.6875,0 1.25,-0.5625 1.25,-1.25 z m 18.75,0 c 0,-0.69445 -3.33334,-1.25 -7.5,-1.25 -4.16666,0 -7.5,0.55555 -7.5,1.25 0,0.69445 3.33334,1.25 7.5,1.25 4.16666,0 7.5,-0.55555 7.5,-1.25 z M 747.5,420 c 0,-0.6875 -0.5625,-1.25 -1.25,-1.25 -0.6875,0 -1.25,0.5625 -1.25,1.25 0,0.6875 0.5625,1.25 1.25,1.25 0.6875,0 1.25,-0.5625 1.25,-1.25 z m 18.75,0 c 0,-0.69445 -3.33334,-1.25 -7.5,-1.25 -4.16666,0 -7.5,0.55555 -7.5,1.25 0,0.69445 3.33334,1.25 7.5,1.25 4.16666,0 7.5,-0.55555 7.5,-1.25 z m -562.5,-16.25 c 0,-0.6875 -0.5625,-1.25 -1.25,-1.25 -0.6875,0 -1.25,0.5625 -1.25,1.25 0,0.6875 0.5625,1.25 1.25,1.25 0.6875,0 1.25,-0.5625 1.25,-1.25 z m 393.75,-27.5 c 0,-0.6875 -0.5625,-1.25 -1.25,-1.25 -0.6875,0 -1.25,0.5625 -1.25,1.25 0,0.6875 0.5625,1.25 1.25,1.25 0.6875,0 1.25,-0.5625 1.25,-1.25 z m 18.75,0 c 0,-0.69445 -3.33334,-1.25 -7.5,-1.25 -4.16666,0 -7.5,0.55555 -7.5,1.25 0,0.69445 3.33334,1.25 7.5,1.25 4.16666,0 7.5,-0.55555 7.5,-1.25 z m -95.14802,-2.1875 c -0.37857,-2.39759 0.38981,-3.96338 3.44347,-7.01705 l 3.29546,-3.29545 46.07954,0 46.07955,0 0,-71.25 c 0,-39.1875 -0.20619,-71.25 -0.45819,-71.25 -0.252,0 -34.62816,34.59375 -76.39146,76.875 L 467.21709,375 l 27.01645,0 c 14.85906,0 26.94985,-0.42188 26.86844,-0.9375 z M 413.75,212.5 c 0,-0.6875 -0.5625,-1.25 -1.25,-1.25 -0.6875,0 -1.25,0.5625 -1.25,1.25 0,0.6875 0.5625,1.25 1.25,1.25 0.6875,0 1.25,-0.5625 1.25,-1.25 z M 10.33629,606.63376 c 1.216209,-0.31692 2.903709,-0.29609 3.75,0.0464 0.84629,0.34241 -0.14879,0.60171 -2.21129,0.57623 -2.0625,-0.0255 -2.7549195,-0.30562 -1.53871,-0.62255 z m 381.25,0 c 1.21621,-0.31692 2.90371,-0.29609 3.75,0.0464 0.84629,0.34241 -0.14879,0.60171 -2.21129,0.57623 -2.0625,-0.0255 -2.75492,-0.30562 -1.53871,-0.62255 z M 552.1875,587.86784 c 1.54687,-0.29795 4.07812,-0.29795 5.625,0 1.54687,0.29794 0.28125,0.54171 -2.8125,0.54171 -3.09375,0 -4.35938,-0.24377 -2.8125,-0.54171 z m 236.875,0.0205 c 1.20312,-0.3144 3.17187,-0.3144 4.375,0 1.20312,0.31441 0.21875,0.57166 -2.1875,0.57166 -2.40625,0 -3.39063,-0.25725 -2.1875,-0.57166 z m -258.125,-1.21619 c 0.85937,-0.34676 2.26562,-0.34676 3.125,0 0.85937,0.34676 0.15625,0.63049 -1.5625,0.63049 -1.71875,0 -2.42188,-0.28373 -1.5625,-0.63049 z m 275.07812,-0.026 c 0.90234,-0.36109 1.98048,-0.31669 2.39584,0.0986 0.41536,0.41537 -0.32292,0.7108 -1.64062,0.65653 -1.45619,-0.06 -1.75238,-0.35618 -0.75522,-0.7552 z M 482.1875,570.34575 c 2.23437,-0.27727 5.89062,-0.27727 8.125,0 2.23437,0.27729 0.40625,0.50416 -4.0625,0.50416 -4.46875,0 -6.29688,-0.22687 -4.0625,-0.50416 z m 30.64879,-1.21199 c 1.21621,-0.31692 2.90371,-0.29609 3.75,0.0464 0.84629,0.34241 -0.14879,0.60171 -2.21129,0.57623 -2.0625,-0.0255 -2.75492,-0.30562 -1.53871,-0.62255 z m 0,-3.75 c 1.21621,-0.31692 2.90371,-0.29609 3.75,0.0464 0.84629,0.34241 -0.14879,0.60171 -2.21129,0.57623 -2.0625,-0.0255 -2.75492,-0.30562 -1.53871,-0.62255 z m -25.02379,-1.24542 c 1.20312,-0.3144 3.17187,-0.3144 4.375,0 1.20312,0.31441 0.21875,0.57166 -2.1875,0.57166 -2.40625,0 -3.39063,-0.25725 -2.1875,-0.57166 z M 405.09073,496.70642 C 403.66582,494.89496 402.5,492.43957 402.5,491.25 c 0,-4.19254 4.883,-8.75 9.375,-8.75 4.492,0 9.375,4.55746 9.375,8.75 0,4.19254 -4.883,8.75 -9.375,8.75 -3.04152,0 -4.90526,-0.90479 -6.78427,-3.29358 z"
         style="fill:#6abbe9" />
      <path
         inkscape:connector-curvature="0"
         id="path5503"
         d="m 82.229403,612.827 c 3.632421,-0.25331 9.257421,-0.25065 12.5,0.006 3.242578,0.25656 0.270597,0.4638 -6.604403,0.46055 -6.875,-0.004 -9.528019,-0.21316 -5.895597,-0.46646 z m 228.749997,0 c 3.63242,-0.25331 9.25742,-0.25065 12.5,0.006 3.24258,0.25656 0.2706,0.4638 -6.6044,0.46055 -6.875,-0.004 -9.52803,-0.21316 -5.8956,-0.46646 z m 348.10689,0.0567 c 1.21621,-0.31693 2.90371,-0.29609 3.75,0.0464 0.84628,0.34242 -0.14879,0.60172 -2.21129,0.57624 -2.0625,-0.0255 -2.75493,-0.30562 -1.53871,-0.62255 z m 55,0 c 1.21621,-0.31693 2.90371,-0.29609 3.75,0.0464 0.84628,0.34242 -0.14879,0.60172 -2.21129,0.57624 -2.0625,-0.0255 -2.75493,-0.30562 -1.53871,-0.62255 z M 34.0625,611.60469 c 1.890625,-0.28642 4.984375,-0.28642 6.875,0 1.890625,0.2864 0.34375,0.52073 -3.4375,0.52073 -3.78125,0 -5.328125,-0.23433 -3.4375,-0.52073 z m 330,0 c 1.89062,-0.28642 4.98437,-0.28642 6.875,0 1.89062,0.2864 0.34375,0.52073 -3.4375,0.52073 -3.78125,0 -5.32813,-0.23433 -3.4375,-0.52073 z m 284.45312,0.0414 c 0.90234,-0.36108 1.98048,-0.31668 2.39584,0.0986 0.41536,0.41536 -0.32292,0.7108 -1.64062,0.65652 -1.45619,-0.06 -1.75238,-0.35617 -0.75522,-0.7552 z m 77.5,0 c 0.90234,-0.36108 1.98048,-0.31668 2.39584,0.0986 0.41536,0.41536 -0.32292,0.7108 -1.64062,0.65652 -1.45619,-0.06 -1.75238,-0.35617 -0.75522,-0.7552 z M 9.6875,610.42215 c 0.859375,-0.34676 2.265625,-0.34676 3.125,0 0.859375,0.34676 0.15625,0.63049 -1.5625,0.63049 -1.71875,0 -2.421875,-0.28373 -1.5625,-0.63049 z m 382.5,0 c 0.85937,-0.34676 2.26562,-0.34676 3.125,0 0.85937,0.34676 0.15625,0.63049 -1.5625,0.63049 -1.71875,0 -2.42188,-0.28373 -1.5625,-0.63049 z M 658.46892,608.0515 C 653.88021,605.56129 652.5,602.58645 652.5,595.18634 c 0,-3.81282 -0.60592,-6.4725 -1.5625,-6.85849 -1.25,-0.50439 -1.25,-0.65021 0,-0.72916 0.85937,-0.0543 1.5625,-0.94244 1.5625,-1.97369 0,-1.64093 -7.57634,-1.875 -60.68708,-1.875 -64.81473,0 -66.02585,-0.108 -69.27587,-6.18076 -0.8228,-1.53743 -1.28705,-20.92078 -1.28705,-53.73707 l 0,-51.33217 -86.25,0 -86.25,0 0,60 0,60 -146.25,0 -146.25,0 0,-93.80681 0,-93.80683 3.068181,-3.06817 3.068183,-3.06819 61.931816,0 61.93182,0 0,-94.43181 0,-94.43183 3.06819,-3.06817 3.06817,-3.06819 219.48864,0 219.48864,0 3.06817,3.06819 3.06819,3.06817 0,76.93183 0,76.93181 21.97115,0 21.97116,0 3.65384,3.65385 3.65385,3.65384 0,41.97116 0,41.97115 6.25,0 6.25,0 0,-18.22115 0,-18.22116 3.65385,-3.65384 3.65384,-3.65385 50.81731,0 50.81731,0 3.65384,3.65385 3.65385,3.65384 0,81.95716 0,81.95715 -2.8125,0.1551 c -1.54687,0.0852 -22.35937,0.39387 -46.25,0.68571 -36.04202,0.44029 -43.4375,0.8271 -43.4375,2.27196 0,0.95775 1.26563,1.98512 2.8125,2.28307 l 2.8125,0.54171 -2.8125,0.17023 c -2.52412,0.15277 -2.8125,0.81947 -2.8125,6.50239 0,13.92494 -2.47171,14.93174 -36.50042,14.86778 -21.05454,-0.0396 -27.33715,-0.43674 -30.03065,-1.89845 z m 33.98124,-6.11645 c 3.32058,-4.00104 -1.55654,-10.14721 -5.88766,-7.41968 -4.32791,2.72552 -2.78604,9.23463 2.1875,9.23463 1.20664,0 2.87171,-0.81673 3.70016,-1.81495 z m 68.75,-23.75 c 3.32058,-4.00104 -1.55654,-10.14721 -5.88766,-7.41968 C 750.98459,573.49089 752.52646,580 757.5,580 c 1.20664,0 2.87171,-0.81673 3.70016,-1.81495 z m -152.5,-2.5 c 3.32058,-4.00104 -1.55654,-10.14721 -5.88766,-7.41968 -4.32791,2.72552 -2.78604,9.23463 2.1875,9.23463 1.20664,0 2.87171,-0.81673 3.70016,-1.81495 z m 43.79984,-63.9062 0,-49.47116 3.65385,-3.65384 c 3.07886,-3.07887 4.65249,-3.65385 10,-3.65385 l 6.34615,0 0,-34.375 0,-34.375 -67.5,0 -67.5,0 0,87.5 0,87.5 57.5,0 57.5,0 0,-49.47115 z M 680,467.5 c 0,-0.6875 -0.5625,-1.25 -1.25,-1.25 -0.6875,0 -1.25,0.5625 -1.25,1.25 0,0.6875 0.5625,1.25 1.25,1.25 0.6875,0 1.25,-0.5625 1.25,-1.25 z m 18.75,0 c 0,-0.69445 -3.33334,-1.25 -7.5,-1.25 -4.16666,0 -7.5,0.55555 -7.5,1.25 0,0.69445 3.33334,1.25 7.5,1.25 4.16666,0 7.5,-0.55555 7.5,-1.25 z m -177.5,-53.18708 c 0,-44.14237 0.26951,-46.07582 6.84007,-49.06956 2.34422,-1.0681 15.89743,-1.49336 47.59374,-1.49336 l 44.31619,0 0,-71.25 0,-71.25 -208.125,0 -208.125,0 0,88.75 0,88.75 69.43181,0 69.43183,0 3.06817,3.06819 c 3.0535,3.05348 3.06819,3.18812 3.06819,28.125 l 0,25.05681 86.25,0 86.25,0 0,-40.68708 z M 747.5,420 c 0,-0.6875 -0.5625,-1.25 -1.25,-1.25 -0.6875,0 -1.25,0.5625 -1.25,1.25 0,0.6875 0.5625,1.25 1.25,1.25 0.6875,0 1.25,-0.5625 1.25,-1.25 z m 18.75,0 c 0,-0.69445 -3.33334,-1.25 -7.5,-1.25 -4.16666,0 -7.5,0.55555 -7.5,1.25 0,0.69445 3.33334,1.25 7.5,1.25 4.16666,0 7.5,-0.55555 7.5,-1.25 z m -562.5,-16.25 c 0,-0.6875 -0.5625,-1.25 -1.25,-1.25 -0.6875,0 -1.25,0.5625 -1.25,1.25 0,0.6875 0.5625,1.25 1.25,1.25 0.6875,0 1.25,-0.5625 1.25,-1.25 z m 393.75,-27.5 c 0,-0.6875 -0.5625,-1.25 -1.25,-1.25 -0.6875,0 -1.25,0.5625 -1.25,1.25 0,0.6875 0.5625,1.25 1.25,1.25 0.6875,0 1.25,-0.5625 1.25,-1.25 z m 18.75,0 c 0,-0.69445 -3.33334,-1.25 -7.5,-1.25 -4.16666,0 -7.5,0.55555 -7.5,1.25 0,0.69445 3.33334,1.25 7.5,1.25 4.16666,0 7.5,-0.55555 7.5,-1.25 z M 413.75,212.5 c 0,-0.6875 -0.5625,-1.25 -1.25,-1.25 -0.6875,0 -1.25,0.5625 -1.25,1.25 0,0.6875 0.5625,1.25 1.25,1.25 0.6875,0 1.25,-0.5625 1.25,-1.25 z M 10.33629,606.63376 c 1.216209,-0.31692 2.903709,-0.29609 3.75,0.0464 0.84629,0.34241 -0.14879,0.60171 -2.21129,0.57623 -2.0625,-0.0255 -2.7549195,-0.30562 -1.53871,-0.62255 z m 381.25,0 c 1.21621,-0.31692 2.90371,-0.29609 3.75,0.0464 0.84629,0.34241 -0.14879,0.60171 -2.21129,0.57623 -2.0625,-0.0255 -2.75492,-0.30562 -1.53871,-0.62255 z M 552.1875,587.86784 c 1.54687,-0.29795 4.07812,-0.29795 5.625,0 1.54687,0.29794 0.28125,0.54171 -2.8125,0.54171 -3.09375,0 -4.35938,-0.24377 -2.8125,-0.54171 z m 236.875,0.0205 c 1.20312,-0.3144 3.17187,-0.3144 4.375,0 1.20312,0.31441 0.21875,0.57166 -2.1875,0.57166 -2.40625,0 -3.39063,-0.25725 -2.1875,-0.57166 z m -258.125,-1.21619 c 0.85937,-0.34676 2.26562,-0.34676 3.125,0 0.85937,0.34676 0.15625,0.63049 -1.5625,0.63049 -1.71875,0 -2.42188,-0.28373 -1.5625,-0.63049 z m 275.07812,-0.026 c 0.90234,-0.36109 1.98048,-0.31669 2.39584,0.0986 0.41536,0.41537 -0.32292,0.7108 -1.64062,0.65653 -1.45619,-0.06 -1.75238,-0.35618 -0.75522,-0.7552 z M 482.1875,570.34575 c 2.23437,-0.27727 5.89062,-0.27727 8.125,0 2.23437,0.27729 0.40625,0.50416 -4.0625,0.50416 -4.46875,0 -6.29688,-0.22687 -4.0625,-0.50416 z m 30.64879,-1.21199 c 1.21621,-0.31692 2.90371,-0.29609 3.75,0.0464 0.84629,0.34241 -0.14879,0.60171 -2.21129,0.57623 -2.0625,-0.0255 -2.75492,-0.30562 -1.53871,-0.62255 z m 0,-3.75 c 1.21621,-0.31692 2.90371,-0.29609 3.75,0.0464 0.84629,0.34241 -0.14879,0.60171 -2.21129,0.57623 -2.0625,-0.0255 -2.75492,-0.30562 -1.53871,-0.62255 z m -25.02379,-1.24542 c 1.20312,-0.3144 3.17187,-0.3144 4.375,0 1.20312,0.31441 0.21875,0.57166 -2.1875,0.57166 -2.40625,0 -3.39063,-0.25725 -2.1875,-0.57166 z M 405.09073,496.70642 C 403.66582,494.89496 402.5,492.43957 402.5,491.25 c 0,-4.19254 4.883,-8.75 9.375,-8.75 4.492,0 9.375,4.55746 9.375,8.75 0,4.19254 -4.883,8.75 -9.375,8.75 -3.04152,0 -4.90526,-0.90479 -6.78427,-3.29358 z"
         style="fill:#eb9a4e" />
      <path
         inkscape:connector-curvature="0"
         id="path5501"
         d="m 82.229403,612.827 c 3.632421,-0.25331 9.257421,-0.25065 12.5,0.006 3.242578,0.25656 0.270597,0.4638 -6.604403,0.46055 -6.875,-0.004 -9.528019,-0.21316 -5.895597,-0.46646 z m 228.749997,0 c 3.63242,-0.25331 9.25742,-0.25065 12.5,0.006 3.24258,0.25656 0.2706,0.4638 -6.6044,0.46055 -6.875,-0.004 -9.52803,-0.21316 -5.8956,-0.46646 z m 348.10689,0.0567 c 1.21621,-0.31693 2.90371,-0.29609 3.75,0.0464 0.84628,0.34242 -0.14879,0.60172 -2.21129,0.57624 -2.0625,-0.0255 -2.75493,-0.30562 -1.53871,-0.62255 z m 55,0 c 1.21621,-0.31693 2.90371,-0.29609 3.75,0.0464 0.84628,0.34242 -0.14879,0.60172 -2.21129,0.57624 -2.0625,-0.0255 -2.75493,-0.30562 -1.53871,-0.62255 z M 34.0625,611.60469 c 1.890625,-0.28642 4.984375,-0.28642 6.875,0 1.890625,0.2864 0.34375,0.52073 -3.4375,0.52073 -3.78125,0 -5.328125,-0.23433 -3.4375,-0.52073 z m 330,0 c 1.89062,-0.28642 4.98437,-0.28642 6.875,0 1.89062,0.2864 0.34375,0.52073 -3.4375,0.52073 -3.78125,0 -5.32813,-0.23433 -3.4375,-0.52073 z m 284.45312,0.0414 c 0.90234,-0.36108 1.98048,-0.31668 2.39584,0.0986 0.41536,0.41536 -0.32292,0.7108 -1.64062,0.65652 -1.45619,-0.06 -1.75238,-0.35617 -0.75522,-0.7552 z m 77.5,0 c 0.90234,-0.36108 1.98048,-0.31668 2.39584,0.0986 0.41536,0.41536 -0.32292,0.7108 -1.64062,0.65652 -1.45619,-0.06 -1.75238,-0.35617 -0.75522,-0.7552 z M 9.6875,610.42215 c 0.859375,-0.34676 2.265625,-0.34676 3.125,0 0.859375,0.34676 0.15625,0.63049 -1.5625,0.63049 -1.71875,0 -2.421875,-0.28373 -1.5625,-0.63049 z m 382.5,0 c 0.85937,-0.34676 2.26562,-0.34676 3.125,0 0.85937,0.34676 0.15625,0.63049 -1.5625,0.63049 -1.71875,0 -2.42188,-0.28373 -1.5625,-0.63049 z M 658.46892,608.0515 C 653.88021,605.56129 652.5,602.58645 652.5,595.18634 c 0,-3.81282 -0.60592,-6.4725 -1.5625,-6.85849 -1.25,-0.50439 -1.25,-0.65021 0,-0.72916 0.85937,-0.0543 1.5625,-0.94244 1.5625,-1.97369 0,-1.64093 -7.57634,-1.875 -60.68708,-1.875 -64.81473,0 -66.02585,-0.108 -69.27587,-6.18076 -0.8228,-1.53743 -1.28705,-20.92078 -1.28705,-53.73707 l 0,-51.33217 -86.25,0 -86.25,0 0,60 0,60 -146.25,0 -146.25,0 0,-93.80681 0,-93.80683 3.068181,-3.06817 3.068183,-3.06819 61.931816,0 61.93182,0 0,-94.43181 0,-94.43183 3.06819,-3.06817 3.06817,-3.06819 219.48864,0 219.48864,0 3.06817,3.06819 3.06819,3.06817 0,76.93183 0,76.93181 21.97115,0 21.97116,0 3.65384,3.65385 3.65385,3.65384 0,41.97116 0,41.97115 6.25,0 6.25,0 0,-18.22115 0,-18.22116 3.65385,-3.65384 3.65384,-3.65385 50.81731,0 50.81731,0 3.65384,3.65385 3.65385,3.65384 0,81.95716 0,81.95715 -2.8125,0.1551 c -1.54687,0.0852 -22.35937,0.39387 -46.25,0.68571 -36.04202,0.44029 -43.4375,0.8271 -43.4375,2.27196 0,0.95775 1.26563,1.98512 2.8125,2.28307 l 2.8125,0.54171 -2.8125,0.17023 c -2.52412,0.15277 -2.8125,0.81947 -2.8125,6.50239 0,13.92494 -2.47171,14.93174 -36.50042,14.86778 -21.05454,-0.0396 -27.33715,-0.43674 -30.03065,-1.89845 z m 33.98124,-6.11645 c 3.32058,-4.00104 -1.55654,-10.14721 -5.88766,-7.41968 -4.32791,2.72552 -2.78604,9.23463 2.1875,9.23463 1.20664,0 2.87171,-0.81673 3.70016,-1.81495 z m 68.75,-23.75 c 3.32058,-4.00104 -1.55654,-10.14721 -5.88766,-7.41968 C 750.98459,573.49089 752.52646,580 757.5,580 c 1.20664,0 2.87171,-0.81673 3.70016,-1.81495 z m -152.5,-2.5 c 3.32058,-4.00104 -1.55654,-10.14721 -5.88766,-7.41968 -4.32791,2.72552 -2.78604,9.23463 2.1875,9.23463 1.20664,0 2.87171,-0.81673 3.70016,-1.81495 z M 812.5,496.875 l 0,-69.375 -53.125,0 -53.125,0 0,13.75 0,13.75 4.31619,0 c 2.3739,0 5.79109,0.67201 7.59373,1.49336 6.72087,3.06223 6.84008,4.09176 6.84008,59.06956 l 0,50.68708 43.75,0 43.75,0 0,-69.375 z m -160,15.5 0,-48.875 4.25,-4.25 c 3.60145,-3.60145 5.12745,-4.25 10,-4.25 l 5.75,0 0,-34.375 0,-34.375 -67.5,0 -67.5,0 0,87.5 0,87.5 57.5,0 57.5,0 0,-48.875 z M 680,467.5 c 0,-0.6875 -0.5625,-1.25 -1.25,-1.25 -0.6875,0 -1.25,0.5625 -1.25,1.25 0,0.6875 0.5625,1.25 1.25,1.25 0.6875,0 1.25,-0.5625 1.25,-1.25 z m 18.75,0 c 0,-0.69445 -3.33334,-1.25 -7.5,-1.25 -4.16666,0 -7.5,0.55555 -7.5,1.25 0,0.69445 3.33334,1.25 7.5,1.25 4.16666,0 7.5,-0.55555 7.5,-1.25 z m -177.5,-53.18708 c 0,-44.14237 0.26951,-46.07582 6.84007,-49.06956 2.34422,-1.0681 15.89743,-1.49336 47.59374,-1.49336 l 44.31619,0 0,-71.25 0,-71.25 -208.125,0 -208.125,0 0,88.75 0,88.75 69.43181,0 69.43183,0 3.06817,3.06819 c 3.0535,3.05348 3.06819,3.18812 3.06819,28.125 l 0,25.05681 86.25,0 86.25,0 0,-40.68708 z M 747.5,420 c 0,-0.6875 -0.5625,-1.25 -1.25,-1.25 -0.6875,0 -1.25,0.5625 -1.25,1.25 0,0.6875 0.5625,1.25 1.25,1.25 0.6875,0 1.25,-0.5625 1.25,-1.25 z m 18.75,0 c 0,-0.69445 -3.33334,-1.25 -7.5,-1.25 -4.16666,0 -7.5,0.55555 -7.5,1.25 0,0.69445 3.33334,1.25 7.5,1.25 4.16666,0 7.5,-0.55555 7.5,-1.25 z m -562.5,-16.25 c 0,-0.6875 -0.5625,-1.25 -1.25,-1.25 -0.6875,0 -1.25,0.5625 -1.25,1.25 0,0.6875 0.5625,1.25 1.25,1.25 0.6875,0 1.25,-0.5625 1.25,-1.25 z m 393.75,-27.5 c 0,-0.6875 -0.5625,-1.25 -1.25,-1.25 -0.6875,0 -1.25,0.5625 -1.25,1.25 0,0.6875 0.5625,1.25 1.25,1.25 0.6875,0 1.25,-0.5625 1.25,-1.25 z m 18.75,0 c 0,-0.69445 -3.33334,-1.25 -7.5,-1.25 -4.16666,0 -7.5,0.55555 -7.5,1.25 0,0.69445 3.33334,1.25 7.5,1.25 4.16666,0 7.5,-0.55555 7.5,-1.25 z M 413.75,212.5 c 0,-0.6875 -0.5625,-1.25 -1.25,-1.25 -0.6875,0 -1.25,0.5625 -1.25,1.25 0,0.6875 0.5625,1.25 1.25,1.25 0.6875,0 1.25,-0.5625 1.25,-1.25 z M 10.33629,606.63376 c 1.216209,-0.31692 2.903709,-0.29609 3.75,0.0464 0.84629,0.34241 -0.14879,0.60171 -2.21129,0.57623 -2.0625,-0.0255 -2.7549195,-0.30562 -1.53871,-0.62255 z m 381.25,0 c 1.21621,-0.31692 2.90371,-0.29609 3.75,0.0464 0.84629,0.34241 -0.14879,0.60171 -2.21129,0.57623 -2.0625,-0.0255 -2.75492,-0.30562 -1.53871,-0.62255 z M 552.1875,587.86784 c 1.54687,-0.29795 4.07812,-0.29795 5.625,0 1.54687,0.29794 0.28125,0.54171 -2.8125,0.54171 -3.09375,0 -4.35938,-0.24377 -2.8125,-0.54171 z m 236.875,0.0205 c 1.20312,-0.3144 3.17187,-0.3144 4.375,0 1.20312,0.31441 0.21875,0.57166 -2.1875,0.57166 -2.40625,0 -3.39063,-0.25725 -2.1875,-0.57166 z m -258.125,-1.21619 c 0.85937,-0.34676 2.26562,-0.34676 3.125,0 0.85937,0.34676 0.15625,0.63049 -1.5625,0.63049 -1.71875,0 -2.42188,-0.28373 -1.5625,-0.63049 z m 275.07812,-0.026 c 0.90234,-0.36109 1.98048,-0.31669 2.39584,0.0986 0.41536,0.41537 -0.32292,0.7108 -1.64062,0.65653 -1.45619,-0.06 -1.75238,-0.35618 -0.75522,-0.7552 z M 482.1875,570.34575 c 2.23437,-0.27727 5.89062,-0.27727 8.125,0 2.23437,0.27729 0.40625,0.50416 -4.0625,0.50416 -4.46875,0 -6.29688,-0.22687 -4.0625,-0.50416 z m 30.64879,-1.21199 c 1.21621,-0.31692 2.90371,-0.29609 3.75,0.0464 0.84629,0.34241 -0.14879,0.60171 -2.21129,0.57623 -2.0625,-0.0255 -2.75492,-0.30562 -1.53871,-0.62255 z m 0,-3.75 c 1.21621,-0.31692 2.90371,-0.29609 3.75,0.0464 0.84629,0.34241 -0.14879,0.60171 -2.21129,0.57623 -2.0625,-0.0255 -2.75492,-0.30562 -1.53871,-0.62255 z m -25.02379,-1.24542 c 1.20312,-0.3144 3.17187,-0.3144 4.375,0 1.20312,0.31441 0.21875,0.57166 -2.1875,0.57166 -2.40625,0 -3.39063,-0.25725 -2.1875,-0.57166 z M 405.09073,496.70642 C 403.66582,494.89496 402.5,492.43957 402.5,491.25 c 0,-4.19254 4.883,-8.75 9.375,-8.75 4.492,0 9.375,4.55746 9.375,8.75 0,4.19254 -4.883,8.75 -9.375,8.75 -3.04152,0 -4.90526,-0.90479 -6.78427,-3.29358 z"
         style="fill:#e85855" />
      <path
         inkscape:connector-curvature="0"
         id="path5499"
         d="m 79.079688,612.85302 c 1.900077,-0.28732 4.712577,-0.27963 6.25,0.017 1.537421,0.29671 -0.01719,0.53178 -3.454688,0.5224 -3.4375,-0.01 -4.695391,-0.25215 -2.795312,-0.53946 z m 241.250002,0 c 1.90007,-0.28732 4.71257,-0.27963 6.25,0.017 1.53742,0.29671 -0.0173,0.53178 -3.45469,0.5224 -3.4375,-0.01 -4.69539,-0.25215 -2.79531,-0.53946 z M 32.1875,611.67215 c 0.859375,-0.34676 2.265625,-0.34676 3.125,0 0.859375,0.34676 0.15625,0.63049 -1.5625,0.63049 -1.71875,0 -2.421875,-0.28373 -1.5625,-0.63049 z m 337.5,0 c 0.85937,-0.34676 2.26562,-0.34676 3.125,0 0.85937,0.34676 0.15625,0.63049 -1.5625,0.63049 -1.71875,0 -2.42188,-0.28373 -1.5625,-0.63049 z m 289.20009,-3.41654 c -4.59547,-2.54706 -6.29492,-6.85191 -6.34329,-16.06811 L 652.5,583.75 l -60.56619,0 c -44.29504,0 -61.4467,-0.40119 -63.84374,-1.49336 -6.72086,-3.06223 -6.84007,-4.09176 -6.84007,-59.06956 l 0,-50.68708 -86.25,0 -86.25,0 0,60 0,60 -146.25,0 -146.25,0 0,-93.80681 0,-93.80683 3.068181,-3.06817 3.068183,-3.06819 61.931816,0 61.93182,0 0,-94.43181 0,-94.43183 3.06819,-3.06817 3.06817,-3.06819 219.48864,0 219.48864,0 3.06817,3.06819 3.06819,3.06817 0,76.93183 0,76.93181 20.56619,0 c 13.28278,0 21.72691,0.52886 23.84373,1.49336 6.57057,2.99374 6.84008,4.92719 6.84008,49.06956 l 0,40.68708 6.25,0 6.25,0 0,-16.81619 c 0,-18.45127 0.9946,-22.34113 6.43129,-25.15256 4.61336,-2.38566 97.80275,-2.64619 102.97864,-0.28789 6.96841,3.17502 6.84007,1.50415 6.84007,89.05557 l 0,80.67307 -2.8125,0.1551 c -1.54687,0.0852 -22.35937,0.39388 -46.25,0.68571 L 725,583.84344 l 0,8.01946 c 0,9.5012 -1.74176,13.9308 -6.43129,16.35585 -4.7827,2.47323 -55.22917,2.50439 -59.68112,0.0369 z m 33.56257,-6.32056 c 3.32058,-4.00104 -1.55654,-10.14721 -5.88766,-7.41968 -4.32791,2.72552 -2.78604,9.23463 2.1875,9.23463 1.20664,0 2.87171,-0.81673 3.70016,-1.81495 z M 338.75,495.625 l 0,-86.875 -136.25,0 -136.25,0 0,86.875 0,86.875 136.25,0 136.25,0 0,-86.875 z m 422.45016,82.56005 c 3.32058,-4.00104 -1.55654,-10.14721 -5.88766,-7.41968 C 750.98459,573.49089 752.52646,580 757.5,580 c 1.20664,0 2.87171,-0.81673 3.70016,-1.81495 z m -152.5,-2.5 c 3.32058,-4.00104 -1.55654,-10.14721 -5.88766,-7.41968 -4.32791,2.72552 -2.78604,9.23463 2.1875,9.23463 1.20664,0 2.87171,-0.81673 3.70016,-1.81495 z M 812.5,496.875 l 0,-69.375 -53.125,0 -53.125,0 0,13.75 0,13.75 4.31619,0 c 2.3739,0 5.79109,0.67201 7.59373,1.49336 6.72087,3.06223 6.84008,4.09176 6.84008,59.06956 l 0,50.68708 43.75,0 43.75,0 0,-69.375 z m -160,15.5 0,-48.875 4.25,-4.25 c 3.60145,-3.60145 5.12745,-4.25 10,-4.25 l 5.75,0 0,-34.375 0,-34.375 -67.5,0 -67.5,0 0,87.5 0,87.5 57.5,0 57.5,0 0,-48.875 z M 680,467.5 c 0,-0.6875 -0.5625,-1.25 -1.25,-1.25 -0.6875,0 -1.25,0.5625 -1.25,1.25 0,0.6875 0.5625,1.25 1.25,1.25 0.6875,0 1.25,-0.5625 1.25,-1.25 z m 18.75,0 c 0,-0.69445 -3.33334,-1.25 -7.5,-1.25 -4.16666,0 -7.5,0.55555 -7.5,1.25 0,0.69445 3.33334,1.25 7.5,1.25 4.16666,0 7.5,-0.55555 7.5,-1.25 z m -177.5,-53.18708 c 0,-44.14237 0.26951,-46.07582 6.84007,-49.06956 2.34422,-1.0681 15.89743,-1.49336 47.59374,-1.49336 l 44.31619,0 0,-71.25 0,-71.25 -208.125,0 -208.125,0 0,88.75 0,88.75 69.43181,0 69.43183,0 3.06817,3.06819 c 3.0535,3.05348 3.06819,3.18812 3.06819,28.125 l 0,25.05681 86.25,0 86.25,0 0,-40.68708 z M 747.5,420 c 0,-0.6875 -0.5625,-1.25 -1.25,-1.25 -0.6875,0 -1.25,0.5625 -1.25,1.25 0,0.6875 0.5625,1.25 1.25,1.25 0.6875,0 1.25,-0.5625 1.25,-1.25 z m 18.75,0 c 0,-0.69445 -3.33334,-1.25 -7.5,-1.25 -4.16666,0 -7.5,0.55555 -7.5,1.25 0,0.69445 3.33334,1.25 7.5,1.25 4.16666,0 7.5,-0.55555 7.5,-1.25 z m -562.5,-16.25 c 0,-0.6875 -0.5625,-1.25 -1.25,-1.25 -0.6875,0 -1.25,0.5625 -1.25,1.25 0,0.6875 0.5625,1.25 1.25,1.25 0.6875,0 1.25,-0.5625 1.25,-1.25 z m 393.75,-27.5 c 0,-0.6875 -0.5625,-1.25 -1.25,-1.25 -0.6875,0 -1.25,0.5625 -1.25,1.25 0,0.6875 0.5625,1.25 1.25,1.25 0.6875,0 1.25,-0.5625 1.25,-1.25 z m 18.75,0 c 0,-0.69445 -3.33334,-1.25 -7.5,-1.25 -4.16666,0 -7.5,0.55555 -7.5,1.25 0,0.69445 3.33334,1.25 7.5,1.25 4.16666,0 7.5,-0.55555 7.5,-1.25 z M 413.75,212.5 c 0,-0.6875 -0.5625,-1.25 -1.25,-1.25 -0.6875,0 -1.25,0.5625 -1.25,1.25 0,0.6875 0.5625,1.25 1.25,1.25 0.6875,0 1.25,-0.5625 1.25,-1.25 z m 137.26562,375.39611 c 0.90234,-0.36108 1.98048,-0.31668 2.39584,0.0986 0.41536,0.41536 -0.32292,0.7108 -1.64062,0.65652 -1.45619,-0.06 -1.75238,-0.35617 -0.75522,-0.7552 z M 487.8125,570.38834 c 1.20312,-0.3144 3.17187,-0.3144 4.375,0 1.20312,0.31441 0.21875,0.57166 -2.1875,0.57166 -2.40625,0 -3.39063,-0.25725 -2.1875,-0.57166 z m 0,-6.25 c 1.20312,-0.3144 3.17187,-0.3144 4.375,0 1.20312,0.31441 0.21875,0.57166 -2.1875,0.57166 -2.40625,0 -3.39063,-0.25725 -2.1875,-0.57166 z M 405.09073,496.70642 C 403.66582,494.89496 402.5,492.43957 402.5,491.25 c 0,-4.19254 4.883,-8.75 9.375,-8.75 4.492,0 9.375,4.55746 9.375,8.75 0,4.19254 -4.883,8.75 -9.375,8.75 -3.04152,0 -4.90526,-0.90479 -6.78427,-3.29358 z"
         style="fill:#36ad98" />
      <path
         inkscape:connector-curvature="0"
         id="path5497"
         d="m 79.079688,612.85302 c 1.900077,-0.28732 4.712577,-0.27963 6.25,0.017 1.537421,0.29671 -0.01719,0.53178 -3.454688,0.5224 -3.4375,-0.01 -4.695391,-0.25215 -2.795312,-0.53946 z m 241.250002,0 c 1.90007,-0.28732 4.71257,-0.27963 6.25,0.017 1.53742,0.29671 -0.0173,0.53178 -3.45469,0.5224 -3.4375,-0.01 -4.69539,-0.25215 -2.79531,-0.53946 z M 32.1875,611.67215 c 0.859375,-0.34676 2.265625,-0.34676 3.125,0 0.859375,0.34676 0.15625,0.63049 -1.5625,0.63049 -1.71875,0 -2.421875,-0.28373 -1.5625,-0.63049 z m 337.5,0 c 0.85937,-0.34676 2.26562,-0.34676 3.125,0 0.85937,0.34676 0.15625,0.63049 -1.5625,0.63049 -1.71875,0 -2.42188,-0.28373 -1.5625,-0.63049 z m 289.6572,-3.41707 C 654.35632,606.08164 652.5,601.62331 652.5,591.81619 l 0,-8.06619 -59.81347,0 c -40.55215,0 -61.09336,-0.44618 -63.78798,-1.38553 -7.57264,-2.63982 -7.64855,-3.22718 -7.64855,-59.17739 l 0,-50.68708 -86.25,0 -86.25,0 0,60 0,60 -146.25,0 -146.25,0 0,-93.80681 0,-93.80683 3.068181,-3.06817 3.068183,-3.06819 61.931816,0 61.93182,0 0,-94.43181 0,-94.43183 3.06819,-3.06817 3.06817,-3.06819 219.48864,0 219.48864,0 3.06817,3.06819 3.06819,3.06817 0,76.93183 0,76.93181 20.56619,0 c 13.28278,0 21.72691,0.52886 23.84373,1.49336 6.57057,2.99374 6.84008,4.92719 6.84008,49.06956 l 0,40.68708 6.25,0 6.25,0 0,-16.81619 c 0,-18.45127 0.9946,-22.34113 6.43129,-25.15256 4.61336,-2.38566 97.80275,-2.64619 102.97864,-0.28789 6.96821,3.17493 6.84007,1.50733 6.84007,89.01924 l 0,80.63676 -3.4375,0.1541 c -1.89062,0.0847 -22.70312,0.40994 -46.25,0.72263 L 725,583.84461 l 0,8.13978 c 0,9.84791 -2.25444,14.7497 -7.64855,16.63009 -5.88824,2.05266 -53.14267,1.75987 -58.00675,-0.3594 z M 693.125,598.75 c 0,-4.16666 -0.20834,-4.375 -4.375,-4.375 -3.62622,0 -4.4454,0.49691 -4.78635,2.90341 -0.70785,4.99613 0.65489,6.66638 5.09025,6.23893 3.74463,-0.36088 4.0711,-0.74319 4.0711,-4.76734 z M 720,532.5 l 0,-55 -31.25,0 -31.25,0 0,55 0,55 31.25,0 31.25,0 0,-55 z m -381.25,-36.875 0,-86.875 -136.25,0 -136.25,0 0,86.875 0,86.875 136.25,0 136.25,0 0,-86.875 z M 761.875,575 c 0,-4.16666 -0.20834,-4.375 -4.375,-4.375 -3.62622,0 -4.4454,0.49691 -4.78635,2.90341 -0.70785,4.99613 0.65489,6.66638 5.09025,6.23893 3.74463,-0.36088 4.0711,-0.74319 4.0711,-4.76734 z m -152.5,-2.5 c 0,-4.16666 -0.20834,-4.375 -4.375,-4.375 -3.62622,0 -4.4454,0.49691 -4.78635,2.90341 -0.70785,4.99613 0.65489,6.66638 5.09025,6.23893 3.74462,-0.36088 4.0711,-0.74319 4.0711,-4.76734 z m 203.125,-75.625 0,-69.375 -53.125,0 -53.125,0 0,13.75 0,13.75 4.31619,0 c 2.3739,0 5.79109,0.67201 7.59373,1.49336 6.72087,3.06223 6.84008,4.09176 6.84008,59.06956 l 0,50.68708 43.75,0 43.75,0 0,-69.375 z m -159.72906,15.02724 0.35406,-49.34776 3.3262,-3.32504 c 2.45974,-2.45887 4.98333,-3.48426 9.6875,-3.93628 l 6.3613,-0.61124 0,-34.21596 0,-34.21596 -67.5,0 -67.5,0 0,87.5 0,87.5 57.45844,0 57.45843,0 0.35407,-49.34776 z M 680,467.5 c 0,-0.6875 -0.5625,-1.25 -1.25,-1.25 -0.6875,0 -1.25,0.5625 -1.25,1.25 0,0.6875 0.5625,1.25 1.25,1.25 0.6875,0 1.25,-0.5625 1.25,-1.25 z m 18.75,0 c 0,-0.69445 -3.33334,-1.25 -7.5,-1.25 -4.16666,0 -7.5,0.55555 -7.5,1.25 0,0.69445 3.33334,1.25 7.5,1.25 4.16666,0 7.5,-0.55555 7.5,-1.25 z m -177.23541,-54.34809 0.36041,-41.8481 3.46459,-3.4644 3.46458,-3.46441 45.59792,-0.35701 45.59791,-0.35702 0,-71.20548 0,-71.20549 -208.125,0 -208.125,0 0,88.75 0,88.75 68.06619,0 c 47.22202,0 68.99896,0.425 71.11216,1.38784 5.14985,2.34643 5.82165,5.94345 5.82165,31.17097 l 0,23.69119 86.20209,0 86.2021,0 0.3604,-41.84809 z M 747.5,420 c 0,-0.6875 -0.5625,-1.25 -1.25,-1.25 -0.6875,0 -1.25,0.5625 -1.25,1.25 0,0.6875 0.5625,1.25 1.25,1.25 0.6875,0 1.25,-0.5625 1.25,-1.25 z m 18.75,0 c 0,-0.69445 -3.33334,-1.25 -7.5,-1.25 -4.16666,0 -7.5,0.55555 -7.5,1.25 0,0.69445 3.33334,1.25 7.5,1.25 4.16666,0 7.5,-0.55555 7.5,-1.25 z M 204.44231,404.89109 c 1.28815,-2.08428 -1.60901,-4.47439 -3.3334,-2.75 -1.4424,1.4424 -0.53965,4.10891 1.39109,4.10891 0.60635,0 1.48039,-0.61151 1.94231,-1.35891 z M 597.5,376.25 c 0,-0.6875 -0.5625,-1.25 -1.25,-1.25 -0.6875,0 -1.25,0.5625 -1.25,1.25 0,0.6875 0.5625,1.25 1.25,1.25 0.6875,0 1.25,-0.5625 1.25,-1.25 z m 18.75,0 c 0,-0.69445 -3.33334,-1.25 -7.5,-1.25 -4.16666,0 -7.5,0.55555 -7.5,1.25 0,0.69445 3.33334,1.25 7.5,1.25 4.16666,0 7.5,-0.55555 7.5,-1.25 z M 414.44231,213.64109 c 1.28815,-2.08428 -1.60901,-4.47439 -3.3334,-2.75 -1.4424,1.4424 -0.53965,4.10891 1.39109,4.10891 0.60635,0 1.48039,-0.61151 1.94231,-1.35891 z m 136.57331,374.25502 c 0.90234,-0.36108 1.98048,-0.31668 2.39584,0.0986 0.41536,0.41536 -0.32292,0.7108 -1.64062,0.65652 -1.45619,-0.06 -1.75238,-0.35617 -0.75522,-0.7552 z M 487.8125,570.38834 c 1.20312,-0.3144 3.17187,-0.3144 4.375,0 1.20312,0.31441 0.21875,0.57166 -2.1875,0.57166 -2.40625,0 -3.39063,-0.25725 -2.1875,-0.57166 z m 0,-6.25 c 1.20312,-0.3144 3.17187,-0.3144 4.375,0 1.20312,0.31441 0.21875,0.57166 -2.1875,0.57166 -2.40625,0 -3.39063,-0.25725 -2.1875,-0.57166 z M 406.18015,497.69479 C 400.25397,492.89606 404.15031,482.5 411.875,482.5 c 1.56642,0 4.1291,1.03735 5.69485,2.30521 C 423.49603,489.60394 419.59969,500 411.875,500 c -1.56642,0 -4.1291,-1.03735 -5.69485,-2.30521 z"
         style="fill:#464c5b" />
    </g>
  </g>
</svg>
