<?xml version="1.0" encoding="UTF-8" standalone="no"?>
<!-- Created with Inkscape (http://www.inkscape.org/) -->

<svg
   xmlns:dc="http://purl.org/dc/elements/1.1/"
   xmlns:cc="http://creativecommons.org/ns#"
   xmlns:rdf="http://www.w3.org/1999/02/22-rdf-syntax-ns#"
   xmlns:svg="http://www.w3.org/2000/svg"
   xmlns="http://www.w3.org/2000/svg"
   xmlns:sodipodi="http://sodipodi.sourceforge.net/DTD/sodipodi-0.dtd"
   xmlns:inkscape="http://www.inkscape.org/namespaces/inkscape"
   id="svg4375"
   version="1.1"
   inkscape:version="0.91 r13725"
   width="256"
   height="256"
   viewBox="0 0 256 256"
   sodipodi:docname="me.svg">
  <metadata
     id="metadata4381">
    <rdf:RDF>
      <cc:Work
         rdf:about="">
        <dc:format>image/svg+xml</dc:format>
        <dc:type
           rdf:resource="http://purl.org/dc/dcmitype/StillImage" />
        <dc:title></dc:title>
      </cc:Work>
    </rdf:RDF>
  </metadata>
  <defs
     id="defs4379" />
  <sodipodi:namedview
     pagecolor="#ffffff"
     bordercolor="#666666"
     borderopacity="1"
     objecttolerance="10"
     gridtolerance="10"
     guidetolerance="10"
     inkscape:pageopacity="0"
     inkscape:pageshadow="2"
     inkscape:window-width="852"
     inkscape:window-height="541"
     id="namedview4377"
     showgrid="false"
     inkscape:zoom="0.7192381"
     inkscape:cx="216.29475"
     inkscape:cy="132.3659"
     inkscape:window-x="343"
     inkscape:window-y="57"
     inkscape:window-maximized="0"
     inkscape:current-layer="svg4375" />
  <g
     id="g4968"
     transform="scale(0.78019048,0.78019048)">
    <g
       id="g4960">
      <rect
         style="opacity:1;fill:#ffffff;fill-opacity:1;stroke:none;stroke-width:12;stroke-linecap:round;stroke-linejoin:round;stroke-miterlimit:4;stroke-dasharray:72, 72;stroke-dashoffset:0;stroke-opacity:1"
         id="rect4958"
         width="248.87447"
         height="268.33951"
         x="37.539726"
         y="41.710804"
         ry="44.07357" />
      <path
         inkscape:connector-curvature="0"
         id="path4927"
         d="m 97.500432,323.90469 c -0.77344,-0.16402 -4.57031,-0.81142 -8.4375,-1.43866 -20.3519,-3.30094 -40.94331,-14.50151 -56.361069,-30.65725 -13.92425,-14.59075 -23.2669005,-32.5601 -27.1802205,-52.27753 -1.90619,-9.60443 -1.90619,-141.333066 0,-150.9375 4.23312,-21.328798 14.9399905,-40.761547 30.7950095,-55.892317 14.59075,-13.924252 32.5601,-23.2669074 52.27753,-27.1802243 9.60444,-1.9061904 141.333068,-1.9061904 150.937498,0 19.71743,3.9133169 37.68678,13.2559723 52.27753,27.1802243 15.85502,15.13077 26.56189,34.563519 30.79501,55.892317 1.90619,9.604434 1.90619,141.33307 0,150.9375 -7.12304,35.88979 -32.71291,65.94544 -66.71128,78.35331 -16.60617,6.06049 -13.55234,5.8503 -88.54876,6.09503 -37.64063,0.12283 -69.070308,0.0892 -69.843748,-0.0749 z m 141.305518,-25.5774 c 14.35116,-3.79283 25.6019,-9.97436 36.20287,-19.89105 8.02844,-7.51021 8.05939,-8.70875 0.38223,-14.7948 -9.10073,-7.21457 -15.41202,-10.95185 -39.23692,-23.23455 -24.49564,-12.62848 -37.74705,-20.91354 -39.80024,-24.88397 -1.80249,-3.48563 -1.82045,-16.91216 -0.0272,-20.3351 0.72945,-1.39237 2.89423,-4.00813 4.81063,-5.81282 5.1598,-4.85901 10.55442,-13.63541 12.67724,-20.62435 1.60114,-5.27142 2.35937,-6.43215 5.20144,-7.96272 4.7934,-2.5814 7.31972,-7.91655 7.32802,-15.47543 0.008,-7.43756 -2.26434,-12.62522 -6.66903,-15.22404 l -3.11207,-1.83616 0,-9.66868 c 0,-19.253357 -4.41217,-32.060268 -14.53073,-42.17737 -10.26926,-10.267784 -22.09812,-14.914081 -37.96927,-14.914081 -15.87115,0 -27.70001,4.646297 -37.96928,14.914081 -10.11855,10.117102 -14.53072,22.924013 -14.53072,42.17737 l 0,9.66868 -3.11206,1.83616 c -4.40469,2.59882 -6.67718,7.78648 -6.66903,15.22404 0.008,7.55888 2.53462,12.89403 7.32802,15.47543 2.84207,1.53057 3.6003,2.6913 5.20144,7.96272 2.12282,6.98894 7.51744,15.76534 12.67724,20.62435 1.9164,1.80469 4.08118,4.42045 4.81063,5.81282 1.65353,3.15626 1.77894,16.54293 0.18769,20.03533 -1.76458,3.87284 -15.76197,12.68024 -40.063538,25.20869 -23.77698,12.258 -30.09059,15.99727 -39.18851,23.2096 -7.67717,6.08605 -7.6462,7.28459 0.38223,14.7948 12.88717,12.05532 26.97069,18.76681 45.14648,21.51453 2.931858,0.44322 34.018158,0.71785 69.080658,0.61026 62.13553,-0.19065 63.9453,-0.24722 71.46177,-2.23374 z"
         style="fill:#4c6b74" />
    </g>
    <rect
       y="5.6843419e-14"
       x="0"
       height="328.125"
       width="328.125"
       id="rect4966"
       style="opacity:0;fill:#ff0000;fill-opacity:1;stroke:none;stroke-width:12;stroke-linecap:round;stroke-linejoin:round;stroke-miterlimit:4;stroke-dasharray:72, 72;stroke-dashoffset:0;stroke-opacity:1" />
  </g>
</svg>
