<?xml version="1.0" encoding="UTF-8" standalone="no"?>
<svg
   xmlns:dc="http://purl.org/dc/elements/1.1/"
   xmlns:cc="http://creativecommons.org/ns#"
   xmlns:rdf="http://www.w3.org/1999/02/22-rdf-syntax-ns#"
   xmlns:svg="http://www.w3.org/2000/svg"
   xmlns="http://www.w3.org/2000/svg"
   xmlns:sodipodi="http://sodipodi.sourceforge.net/DTD/sodipodi-0.dtd"
   xmlns:inkscape="http://www.inkscape.org/namespaces/inkscape"
   viewBox="0 0 328.125 328.125"
   height="328.125"
   width="328.125"
   version="1.1"
   id="svg4222"
   inkscape:version="0.91 r13725"
   sodipodi:docname="question.svg">
  <sodipodi:namedview
     pagecolor="#ffffff"
     bordercolor="#666666"
     borderopacity="1"
     objecttolerance="10"
     gridtolerance="10"
     guidetolerance="10"
     inkscape:pageopacity="0"
     inkscape:pageshadow="2"
     inkscape:window-width="699"
     inkscape:window-height="480"
     id="namedview5800"
     showgrid="false"
     inkscape:zoom="0.921875"
     inkscape:cx="128"
     inkscape:cy="128"
     inkscape:window-x="541"
     inkscape:window-y="0"
     inkscape:window-maximized="0"
     inkscape:current-layer="svg4222" />
  <metadata
     id="metadata4228">
    <rdf:RDF>
      <cc:Work
         rdf:about="">
        <dc:format>image/svg+xml</dc:format>
        <dc:type
           rdf:resource="http://purl.org/dc/dcmitype/StillImage" />
        <dc:title></dc:title>
      </cc:Work>
    </rdf:RDF>
  </metadata>
  <defs
     id="defs4226" />
  <g
     id="g4268">
    <rect
       style="opacity:0;fill:#0000ff;fill-opacity:1;stroke:none;stroke-width:12;stroke-linecap:round;stroke-linejoin:round;stroke-miterlimit:4;stroke-dasharray:72, 72;stroke-dashoffset:0;stroke-opacity:1"
       id="rect4266"
       width="328.125"
       height="328.125"
       x="0"
       y="0" />
    <g
       id="g4262">
      <rect
         y="63.125"
         x="73"
         height="213"
         width="179"
         id="rect4260"
         style="opacity:1;fill:#ffffff;fill-opacity:1;stroke:none;stroke-width:12;stroke-linecap:round;stroke-linejoin:round;stroke-miterlimit:4;stroke-dasharray:72, 72;stroke-dashoffset:0;stroke-opacity:1" />
      <path
         style="fill:#f27052"
         d="M 140.30477,320.14869 C 61.7486,307.38831 5.625,241.95357 5.625,163.125 5.625,86.959527 57.36002,23.751556 133.125,7.3501373 141.72387,5.4886749 145.63635,5.219186 164.0625,5.219186 c 23.62285,0 31.50008,1.1729283 50.625,7.538117 48.68132,16.202206 87.38798,56.478527 101.71178,105.836447 4.92622,16.97508 6.3654,29.04128 5.81462,48.75 -0.71461,25.57078 -5.18611,44.29968 -15.66791,65.625 -21.81659,44.38609 -61.64049,75.1058 -111.27607,85.83713 -12.12199,2.62079 -42.52497,3.36355 -54.96515,1.34281 z m 43.95659,-69.32483 c 2.25825,-2.25825 2.30114,-2.59101 2.30114,-17.85511 0,-15.2641 -0.0428,-15.59686 -2.30114,-17.85511 -2.26241,-2.26241 -2.56891,-2.30114 -18.21321,-2.30114 l -15.91206,0 -1.94305,2.47018 c -1.78644,2.27109 -1.94304,3.71015 -1.94304,17.85511 0,15.08463 0.0449,15.42985 2.30114,17.68607 2.25825,2.25825 2.59101,2.30114 17.85511,2.30114 15.2641,0 15.59686,-0.0428 17.85511,-2.30114 z m 0.3581,-49.85654 c 1.06867,-1.3586 1.94304,-3.61596 1.94304,-5.01636 0,-5.77952 1.89382,-8.34378 12.05012,-16.31602 21.24977,-16.68013 25.68576,-24.86981 25.70029,-47.44744 0.006,-9.10342 -0.37628,-11.95988 -2.45546,-18.35476 C 208.3484,72.283304 156.07951,59.575729 125.29798,90.357265 115.35409,100.30116 108.75,114.20961 108.75,125.20792 c 0,6.82158 1.44904,7.40654 19.07999,7.70221 10.85927,0.18212 15.8013,-0.084 17.48251,-0.94156 1.35354,-0.69038 3.41229,-3.43528 4.87292,-6.49695 3.54662,-7.43425 7.77677,-10.46509 15.16149,-10.86299 4.66708,-0.25146 6.44621,0.0965 9.46912,1.85202 7.42589,4.31247 10.58113,13.01833 7.57296,20.89511 -1.19896,3.13942 -3.11272,5.34067 -7.84672,9.02548 -8.4352,6.56573 -16.59469,14.46662 -20.02994,19.39516 -8.40426,12.05754 -11.63551,33.17443 -5.61388,36.68786 0.86366,0.50392 8.81702,0.92906 17.67413,0.94473 l 16.10383,0.0285 1.94305,-2.47018 z"
         id="path4234"
         inkscape:connector-curvature="0" />
    </g>
  </g>
</svg>
